M48
;Layer_Color=9474304
;FILE_FORMAT=4:4
METRIC,LZ
;TYPE=PLATED
T1F00S00C0.8000
T2F00S00C1.0000
T3F00S00C1.2000
T4F00S00C3.0000
%
T01
X0053594Y0003723
Y0008723
T02
X007366Y0009652
X007239Y0018415
X006985
X0073787Y0020828
X007239Y0030226
X006985
X006731
X006477
X0057277
X0054737
X0052197
X0049657
X00497349Y0018415
X00522749
X00548149
X00573549
X0058293Y0023876
X006477Y0018415
X006731
X0047244Y0004191
X0029718Y0004445
X0021876Y000441
X0021867Y0006806
X0011072Y0006679
X0011081Y0004283
X0003556Y0009017
X0004064Y0017907
X0006604
X0009144
X0011684
X0020955
X0023495
X0026035
X0028575
X002794Y0029972
X00254
X002286
X002032
X00116349
X00090949
X00065549
X00040149
X000762Y0034417
X0009017Y0036195
X0026162Y003556
X0025781Y0050038
X0028321
X0023241
X0020701
X0018161
X0015621
X0013081
X0011049Y0040386
X0010668Y0037846
X0013081Y0065278
X0015621
X0018161
X0020701
X0023241
X0025781
X0028321
X0027178Y005588
X0032182
X0033401Y0050038
X0035941
X0038481
X0041021
X0043561
X0046101
X0048641
X0051181
X0053721
X0056261
X0058801
X0061341
X0064389Y004318
X0044958Y0037719
X0030861Y0050038
Y0065278
X0033401
X0035941
X0038481
X0041021
X0043561
X0046101
X0048641
X0051181
X0053721
X0056261
X0058801
X0061341
X0035433Y0060833
X0071882Y0043307
T03
X0035433Y0004191
X0040513
T04
X0073406Y0003429
X0003429
X0003302Y0066548
X0073533
M30
