G04*
G04 #@! TF.GenerationSoftware,Altium Limited,Altium Designer,22.9.1 (49)*
G04*
G04 Layer_Color=65535*
%FSLAX44Y44*%
%MOMM*%
G71*
G04*
G04 #@! TF.SameCoordinates,248AC2EE-2185-46B6-B0B3-A36349E764D8*
G04*
G04*
G04 #@! TF.FilePolarity,Positive*
G04*
G01*
G75*
%ADD10C,0.2000*%
%ADD11C,0.1270*%
%ADD12C,0.1000*%
%ADD13C,0.2540*%
D10*
X355330Y154760D02*
G03*
X355330Y154760I-1000J0D01*
G01*
X418990Y124810D02*
X436990D01*
Y152810D01*
X418990D02*
X436990D01*
X418990Y124810D02*
Y152810D01*
X387730Y62200D02*
Y89200D01*
X383730Y62200D02*
Y89200D01*
X238510Y532990D02*
X355510D01*
X238510Y585990D02*
X355510D01*
Y575990D02*
Y585990D01*
Y532990D02*
Y540990D01*
X238510Y532990D02*
Y541990D01*
Y576990D02*
Y585990D01*
X198010Y527910D02*
X216010D01*
Y555910D01*
X198010D02*
X216010D01*
X198010Y527910D02*
Y555910D01*
X373270Y574070D02*
X391270D01*
X373270Y546070D02*
Y574070D01*
Y546070D02*
X391270D01*
Y574070D01*
X544720Y587660D02*
X562720D01*
X544720Y559660D02*
Y587660D01*
Y559660D02*
X562720D01*
Y587660D01*
X647544Y33546D02*
Y41030D01*
Y33546D02*
X655280D01*
X669280Y33530D02*
X677280D01*
Y40530D01*
D11*
X326640Y408540D02*
X389640D01*
X326640Y371240D02*
X389640D01*
X327910Y450450D02*
X390910D01*
X327910Y413150D02*
X390910D01*
X328930Y218280D02*
Y248260D01*
Y218280D02*
X430530D01*
Y248260D01*
X686220Y560350D02*
Y595350D01*
X626220D02*
X686220D01*
X626220Y560350D02*
Y595350D01*
Y560350D02*
X686220D01*
D12*
X208440Y36880D02*
X228440D01*
Y74880D01*
X208440D02*
X228440D01*
X208440Y36880D02*
Y74880D01*
X230440Y42880D02*
X236440D01*
X233440Y39880D02*
Y45880D01*
X100490Y35610D02*
X120490D01*
Y73610D01*
X100490D02*
X120490D01*
X100490Y35610D02*
Y73610D01*
X122490Y41610D02*
X128490D01*
X125490Y38610D02*
Y44610D01*
X374810Y152350D02*
X394810D01*
X374810Y114350D02*
Y152350D01*
Y114350D02*
X394810D01*
Y152350D01*
X363270Y336710D02*
Y356710D01*
Y336710D02*
X401270D01*
Y356710D01*
X363270D02*
X401270D01*
X336710Y114350D02*
X356710D01*
Y152350D01*
X336710D02*
X356710D01*
X336710Y114350D02*
Y152350D01*
X572930Y559550D02*
X592930D01*
Y597550D01*
X572930D02*
X592930D01*
X572930Y559550D02*
Y597550D01*
X633890Y106630D02*
X653890D01*
X633890Y68630D02*
Y106630D01*
Y68630D02*
X653890D01*
Y106630D01*
X665640Y68630D02*
X685640D01*
Y106630D01*
X665640D02*
X685640D01*
X665640Y68630D02*
Y106630D01*
X141130Y35610D02*
X161130D01*
Y73610D01*
X141130D02*
X161130D01*
X141130Y35610D02*
Y73610D01*
X241460Y36180D02*
X261460D01*
Y74180D01*
X241460D02*
X261460D01*
X241460Y36180D02*
Y74180D01*
X442324Y126810D02*
Y132142D01*
X439658Y129476D02*
X444990D01*
X221344Y529910D02*
Y535242D01*
X218678Y532576D02*
X224010D01*
X367936Y572070D02*
Y566738D01*
X370602Y569404D02*
X365270D01*
X539386Y585660D02*
Y580328D01*
X542052Y582994D02*
X536720D01*
D13*
X321818Y437383D02*
Y422148D01*
X329436D01*
X331975Y424687D01*
Y434844D01*
X329436Y437383D01*
X321818D01*
X344671Y422148D02*
X339592D01*
X337053Y424687D01*
Y429766D01*
X339592Y432305D01*
X344671D01*
X347210Y429766D01*
Y427226D01*
X337053D01*
X352288Y422148D02*
X359906D01*
X362445Y424687D01*
X359906Y427226D01*
X354827D01*
X352288Y429766D01*
X354827Y432305D01*
X362445D01*
X367523Y422148D02*
X372602D01*
X370062D01*
Y432305D01*
X367523D01*
X385298Y417070D02*
X387837D01*
X390376Y419609D01*
Y432305D01*
X382758D01*
X380219Y429766D01*
Y424687D01*
X382758Y422148D01*
X390376D01*
X395454D02*
Y432305D01*
X403072D01*
X405611Y429766D01*
Y422148D01*
X413228Y432305D02*
X418307D01*
X420846Y429766D01*
Y422148D01*
X413228D01*
X410689Y424687D01*
X413228Y427226D01*
X420846D01*
X428464Y434844D02*
Y432305D01*
X425924D01*
X431003D01*
X428464D01*
Y424687D01*
X431003Y422148D01*
X441159D02*
X446238D01*
X448777Y424687D01*
Y429766D01*
X446238Y432305D01*
X441159D01*
X438620Y429766D01*
Y424687D01*
X441159Y422148D01*
X453855Y432305D02*
Y422148D01*
Y427226D01*
X456395Y429766D01*
X458934Y432305D01*
X461473D01*
X479247Y437383D02*
X469090D01*
Y429766D01*
X474169Y432305D01*
X476708D01*
X479247Y429766D01*
Y424687D01*
X476708Y422148D01*
X471629D01*
X469090Y424687D01*
X323088Y479293D02*
Y464058D01*
X330705D01*
X333245Y466597D01*
Y476754D01*
X330705Y479293D01*
X323088D01*
X345941Y464058D02*
X340862D01*
X338323Y466597D01*
Y471675D01*
X340862Y474215D01*
X345941D01*
X348480Y471675D01*
Y469136D01*
X338323D01*
X353558Y464058D02*
X361176D01*
X363715Y466597D01*
X361176Y469136D01*
X356097D01*
X353558Y471675D01*
X356097Y474215D01*
X363715D01*
X368793Y464058D02*
X373872D01*
X371332D01*
Y474215D01*
X368793D01*
X386567Y458980D02*
X389107D01*
X391646Y461519D01*
Y474215D01*
X384028D01*
X381489Y471675D01*
Y466597D01*
X384028Y464058D01*
X391646D01*
X396724D02*
Y474215D01*
X404342D01*
X406881Y471675D01*
Y464058D01*
X414498Y474215D02*
X419577D01*
X422116Y471675D01*
Y464058D01*
X414498D01*
X411959Y466597D01*
X414498Y469136D01*
X422116D01*
X429734Y476754D02*
Y474215D01*
X427194D01*
X432273D01*
X429734D01*
Y466597D01*
X432273Y464058D01*
X442429D02*
X447508D01*
X450047Y466597D01*
Y471675D01*
X447508Y474215D01*
X442429D01*
X439890Y471675D01*
Y466597D01*
X442429Y464058D01*
X455125Y474215D02*
Y464058D01*
Y469136D01*
X457664Y471675D01*
X460204Y474215D01*
X462743D01*
X477978Y464058D02*
Y479293D01*
X470360Y471675D01*
X480517D01*
X210566Y147569D02*
Y132334D01*
X218183D01*
X220723Y134873D01*
Y145030D01*
X218183Y147569D01*
X210566D01*
X233419Y132334D02*
X228340D01*
X225801Y134873D01*
Y139951D01*
X228340Y142491D01*
X233419D01*
X235958Y139951D01*
Y137412D01*
X225801D01*
X241036Y132334D02*
X248654D01*
X251193Y134873D01*
X248654Y137412D01*
X243575D01*
X241036Y139951D01*
X243575Y142491D01*
X251193D01*
X256271Y132334D02*
X261350D01*
X258810D01*
Y142491D01*
X256271D01*
X274046Y127256D02*
X276585D01*
X279124Y129795D01*
Y142491D01*
X271506D01*
X268967Y139951D01*
Y134873D01*
X271506Y132334D01*
X279124D01*
X284202D02*
Y142491D01*
X291820D01*
X294359Y139951D01*
Y132334D01*
X301976Y142491D02*
X307055D01*
X309594Y139951D01*
Y132334D01*
X301976D01*
X299437Y134873D01*
X301976Y137412D01*
X309594D01*
X317211Y145030D02*
Y142491D01*
X314672D01*
X319751D01*
X317211D01*
Y134873D01*
X319751Y132334D01*
X329907D02*
X334986D01*
X337525Y134873D01*
Y139951D01*
X334986Y142491D01*
X329907D01*
X327368Y139951D01*
Y134873D01*
X329907Y132334D01*
X342603Y142491D02*
Y132334D01*
Y137412D01*
X345143Y139951D01*
X347682Y142491D01*
X350221D01*
X357838Y145030D02*
X360378Y147569D01*
X365456D01*
X367995Y145030D01*
Y142491D01*
X365456Y139951D01*
X362917D01*
X365456D01*
X367995Y137412D01*
Y134873D01*
X365456Y132334D01*
X360378D01*
X357838Y134873D01*
X102616Y146299D02*
Y131064D01*
X110233D01*
X112773Y133603D01*
Y143760D01*
X110233Y146299D01*
X102616D01*
X125469Y131064D02*
X120390D01*
X117851Y133603D01*
Y138681D01*
X120390Y141221D01*
X125469D01*
X128008Y138681D01*
Y136142D01*
X117851D01*
X133086Y131064D02*
X140704D01*
X143243Y133603D01*
X140704Y136142D01*
X135625D01*
X133086Y138681D01*
X135625Y141221D01*
X143243D01*
X148321Y131064D02*
X153400D01*
X150860D01*
Y141221D01*
X148321D01*
X166096Y125986D02*
X168635D01*
X171174Y128525D01*
Y141221D01*
X163556D01*
X161017Y138681D01*
Y133603D01*
X163556Y131064D01*
X171174D01*
X176252D02*
Y141221D01*
X183870D01*
X186409Y138681D01*
Y131064D01*
X194026Y141221D02*
X199105D01*
X201644Y138681D01*
Y131064D01*
X194026D01*
X191487Y133603D01*
X194026Y136142D01*
X201644D01*
X209261Y143760D02*
Y141221D01*
X206722D01*
X211801D01*
X209261D01*
Y133603D01*
X211801Y131064D01*
X221957D02*
X227036D01*
X229575Y133603D01*
Y138681D01*
X227036Y141221D01*
X221957D01*
X219418Y138681D01*
Y133603D01*
X221957Y131064D01*
X234653Y141221D02*
Y131064D01*
Y136142D01*
X237192Y138681D01*
X239732Y141221D01*
X242271D01*
X260045Y131064D02*
X249888D01*
X260045Y141221D01*
Y143760D01*
X257506Y146299D01*
X252428D01*
X249888Y143760D01*
X376936Y164084D02*
Y179319D01*
X384553D01*
X387093Y176780D01*
Y171702D01*
X384553Y169162D01*
X376936D01*
X382014D02*
X387093Y164084D01*
X402328D02*
X392171D01*
X402328Y174241D01*
Y176780D01*
X399789Y179319D01*
X394710D01*
X392171Y176780D01*
X325374Y353309D02*
Y343152D01*
X330452Y338074D01*
X335531Y343152D01*
Y353309D01*
X340609Y338074D02*
Y353309D01*
X348227D01*
X350766Y350770D01*
Y345691D01*
X348227Y343152D01*
X340609D01*
X345687D02*
X350766Y338074D01*
X430781Y174240D02*
X428242Y176779D01*
X423163D01*
X420624Y174240D01*
Y164083D01*
X423163Y161544D01*
X428242D01*
X430781Y164083D01*
X435859Y161544D02*
X440937D01*
X438398D01*
Y176779D01*
X435859Y174240D01*
X361696Y364744D02*
Y379979D01*
X369314D01*
X371853Y377440D01*
Y372361D01*
X369314Y369822D01*
X361696D01*
X366774D02*
X371853Y364744D01*
X376931D02*
X382009D01*
X379470D01*
Y379979D01*
X376931Y377440D01*
X322072Y93213D02*
Y77978D01*
X329689D01*
X332229Y80517D01*
Y90674D01*
X329689Y93213D01*
X322072D01*
X338836Y160528D02*
Y175763D01*
X346454D01*
X348993Y173224D01*
Y168146D01*
X346454Y165606D01*
X338836D01*
X343914D02*
X348993Y160528D01*
X354071Y173224D02*
X356610Y175763D01*
X361689D01*
X364228Y173224D01*
Y170685D01*
X361689Y168146D01*
X359149D01*
X361689D01*
X364228Y165606D01*
Y163067D01*
X361689Y160528D01*
X356610D01*
X354071Y163067D01*
X575056Y605790D02*
Y621025D01*
X582673D01*
X585213Y618486D01*
Y613408D01*
X582673Y610868D01*
X575056D01*
X580134D02*
X585213Y605790D01*
X597909D02*
Y621025D01*
X590291Y613408D01*
X600448D01*
X240027Y607310D02*
X237488Y609849D01*
X232409D01*
X229870Y607310D01*
Y597153D01*
X232409Y594614D01*
X237488D01*
X240027Y597153D01*
X245105Y609849D02*
Y607310D01*
X250183Y602231D01*
X255262Y607310D01*
Y609849D01*
X250183Y602231D02*
Y594614D01*
X270497Y607310D02*
X267958Y609849D01*
X262879D01*
X260340Y607310D01*
Y604771D01*
X262879Y602231D01*
X267958D01*
X270497Y599692D01*
Y597153D01*
X267958Y594614D01*
X262879D01*
X260340Y597153D01*
X275575Y594614D02*
X280654D01*
X278114D01*
Y609849D01*
X275575Y607310D01*
X209801Y577338D02*
X207262Y579877D01*
X202183D01*
X199644Y577338D01*
Y567181D01*
X202183Y564642D01*
X207262D01*
X209801Y567181D01*
X214879Y577338D02*
X217418Y579877D01*
X222497D01*
X225036Y577338D01*
Y574799D01*
X222497Y572259D01*
X219957D01*
X222497D01*
X225036Y569720D01*
Y567181D01*
X222497Y564642D01*
X217418D01*
X214879Y567181D01*
X376933Y595372D02*
X374394Y597911D01*
X369315D01*
X366776Y595372D01*
Y585215D01*
X369315Y582676D01*
X374394D01*
X376933Y585215D01*
X392168Y582676D02*
X382011D01*
X392168Y592833D01*
Y595372D01*
X389629Y597911D01*
X384550D01*
X382011Y595372D01*
X610613Y618486D02*
X608074Y621025D01*
X602995D01*
X600456Y618486D01*
Y615947D01*
X602995Y613408D01*
X608074D01*
X610613Y610868D01*
Y608329D01*
X608074Y605790D01*
X602995D01*
X600456Y608329D01*
X615691Y621025D02*
Y605790D01*
X620769Y610868D01*
X625848Y605790D01*
Y621025D01*
X630926Y605790D02*
X636004D01*
X633465D01*
Y621025D01*
X630926Y618486D01*
X548383Y609088D02*
X545844Y611627D01*
X540765D01*
X538226Y609088D01*
Y598931D01*
X540765Y596392D01*
X545844D01*
X548383Y598931D01*
X561079Y596392D02*
Y611627D01*
X553461Y604010D01*
X563618D01*
X636016Y118364D02*
Y133599D01*
X643633D01*
X646173Y131060D01*
Y125982D01*
X643633Y123442D01*
X636016D01*
X641094D02*
X646173Y118364D01*
X661408Y133599D02*
X651251D01*
Y125982D01*
X656329Y128521D01*
X658869D01*
X661408Y125982D01*
Y120903D01*
X658869Y118364D01*
X653790D01*
X651251Y120903D01*
X667766Y114808D02*
Y130043D01*
X675384D01*
X677923Y127504D01*
Y122425D01*
X675384Y119886D01*
X667766D01*
X672844D02*
X677923Y114808D01*
X693158Y130043D02*
X688079Y127504D01*
X683001Y122425D01*
Y117347D01*
X685540Y114808D01*
X690619D01*
X693158Y117347D01*
Y119886D01*
X690619Y122425D01*
X683001D01*
X143256Y81788D02*
Y97023D01*
X150873D01*
X153413Y94484D01*
Y89405D01*
X150873Y86866D01*
X143256D01*
X148334D02*
X153413Y81788D01*
X158491Y97023D02*
X168648D01*
Y94484D01*
X158491Y84327D01*
Y81788D01*
X243586Y82296D02*
Y97531D01*
X251203D01*
X253743Y94992D01*
Y89914D01*
X251203Y87374D01*
X243586D01*
X248664D02*
X253743Y82296D01*
X258821Y94992D02*
X261360Y97531D01*
X266439D01*
X268978Y94992D01*
Y92453D01*
X266439Y89914D01*
X268978Y87374D01*
Y84835D01*
X266439Y82296D01*
X261360D01*
X258821Y84835D01*
Y87374D01*
X261360Y89914D01*
X258821Y92453D01*
Y94992D01*
X261360Y89914D02*
X266439D01*
X659127Y66801D02*
Y76958D01*
X656588Y79497D01*
X651509D01*
X648970Y76958D01*
Y66801D01*
X651509Y64262D01*
X656588D01*
X654048Y69340D02*
X659127Y64262D01*
X656588D02*
X659127Y66801D01*
X664205Y64262D02*
X669283D01*
X666744D01*
Y79497D01*
X664205Y76958D01*
M02*
