G04*
G04 #@! TF.GenerationSoftware,Altium Limited,Altium Designer,22.9.1 (49)*
G04*
G04 Layer_Physical_Order=1*
G04 Layer_Color=255*
%FSLAX44Y44*%
%MOMM*%
G71*
G04*
G04 #@! TF.SameCoordinates,248AC2EE-2185-46B6-B0B3-A36349E764D8*
G04*
G04*
G04 #@! TF.FilePolarity,Positive*
G04*
G01*
G75*
G04:AMPARAMS|DCode=14|XSize=1.9mm|YSize=3.37mm|CornerRadius=0.0665mm|HoleSize=0mm|Usage=FLASHONLY|Rotation=0.000|XOffset=0mm|YOffset=0mm|HoleType=Round|Shape=RoundedRectangle|*
%AMROUNDEDRECTD14*
21,1,1.9000,3.2370,0,0,0.0*
21,1,1.7670,3.3700,0,0,0.0*
1,1,0.1330,0.8835,-1.6185*
1,1,0.1330,-0.8835,-1.6185*
1,1,0.1330,-0.8835,1.6185*
1,1,0.1330,0.8835,1.6185*
%
%ADD14ROUNDEDRECTD14*%
%ADD15R,1.7000X1.1000*%
%ADD16R,1.8000X1.2000*%
G04:AMPARAMS|DCode=17|XSize=3.79mm|YSize=0.99mm|CornerRadius=0.1238mm|HoleSize=0mm|Usage=FLASHONLY|Rotation=90.000|XOffset=0mm|YOffset=0mm|HoleType=Round|Shape=RoundedRectangle|*
%AMROUNDEDRECTD17*
21,1,3.7900,0.7425,0,0,90.0*
21,1,3.5425,0.9900,0,0,90.0*
1,1,0.2475,0.3713,1.7713*
1,1,0.2475,0.3713,-1.7713*
1,1,0.2475,-0.3713,-1.7713*
1,1,0.2475,-0.3713,1.7713*
%
%ADD17ROUNDEDRECTD17*%
%ADD18R,10.8400X7.6200*%
%ADD19R,1.4000X0.8000*%
%ADD20R,1.2000X1.8000*%
%ADD21R,1.8000X2.5000*%
G04:AMPARAMS|DCode=22|XSize=2mm|YSize=4.75mm|CornerRadius=0.5mm|HoleSize=0mm|Usage=FLASHONLY|Rotation=270.000|XOffset=0mm|YOffset=0mm|HoleType=Round|Shape=RoundedRectangle|*
%AMROUNDEDRECTD22*
21,1,2.0000,3.7500,0,0,270.0*
21,1,1.0000,4.7500,0,0,270.0*
1,1,1.0000,-1.8750,-0.5000*
1,1,1.0000,-1.8750,0.5000*
1,1,1.0000,1.8750,0.5000*
1,1,1.0000,1.8750,-0.5000*
%
%ADD22ROUNDEDRECTD22*%
%ADD23R,4.7500X2.0000*%
%ADD24R,2.1800X1.6000*%
%ADD25R,0.8000X1.1000*%
%ADD26C,2.0000*%
%ADD27C,1.0000*%
%ADD28C,0.8000*%
%ADD29C,0.6000*%
%ADD30O,2.0000X3.0000*%
%ADD31O,2.0000X3.0000*%
%ADD32O,3.0000X1.5240*%
%ADD33O,3.0000X2.2000*%
%ADD34R,1.5080X3.0000*%
%ADD35O,1.5080X3.0000*%
%ADD36C,1.5240*%
%ADD37C,1.0000*%
%ADD38C,2.0000*%
%ADD39C,3.0000*%
G36*
X740785Y695537D02*
X746708Y694359D01*
X752425Y692418D01*
X757841Y689747D01*
X762306Y686764D01*
X771753Y677316D01*
X774737Y672851D01*
X777408Y667435D01*
X779349Y661718D01*
X780527Y655795D01*
X780910Y649946D01*
X780875Y649770D01*
Y49770D01*
X780910Y49594D01*
X780527Y43745D01*
X779349Y37822D01*
X778857Y36372D01*
X777919Y34969D01*
X776151Y33201D01*
X748863Y5913D01*
X746708Y5181D01*
X740785Y4003D01*
X734936Y3620D01*
X734760Y3655D01*
X34760D01*
X34584Y3620D01*
X28735Y4003D01*
X26699Y4408D01*
X24810Y5670D01*
X23040Y7440D01*
X-10446Y40926D01*
X-11007Y43745D01*
X-11390Y49594D01*
X-11355Y49770D01*
Y649770D01*
X-11390Y649946D01*
X-11007Y655795D01*
X-9829Y661718D01*
X-9683Y662147D01*
X22383Y694213D01*
X22812Y694359D01*
X28735Y695537D01*
X34584Y695920D01*
X34760Y695885D01*
X485667D01*
X486153Y694712D01*
X461751Y670310D01*
X461010Y670407D01*
X458379Y670061D01*
X455927Y669045D01*
X453821Y667429D01*
X452205Y665323D01*
X451189Y662871D01*
X450843Y660240D01*
Y645320D01*
X451189Y642689D01*
X452205Y640237D01*
X453821Y638131D01*
X455927Y636515D01*
X458379Y635499D01*
X461010Y635153D01*
X463641Y635499D01*
X466093Y636515D01*
X468199Y638131D01*
X469815Y640237D01*
X470830Y642689D01*
X471177Y645320D01*
Y660240D01*
X471079Y660981D01*
X477924Y667825D01*
X478881Y666986D01*
X477605Y665323D01*
X476590Y662871D01*
X476243Y660240D01*
Y645320D01*
X476590Y642689D01*
X477605Y640237D01*
X479221Y638131D01*
X481326Y636515D01*
X483779Y635499D01*
X486410Y635153D01*
X489041Y635499D01*
X491493Y636515D01*
X493599Y638131D01*
X495215Y640237D01*
X496231Y642689D01*
X496577Y645320D01*
Y660240D01*
X496324Y662165D01*
X511120Y676962D01*
X518884D01*
X519370Y675788D01*
X513735Y670154D01*
X511810Y670407D01*
X509179Y670061D01*
X506726Y669045D01*
X504621Y667429D01*
X503005Y665323D01*
X501990Y662871D01*
X501643Y660240D01*
Y645320D01*
X501990Y642689D01*
X503005Y640237D01*
X504621Y638131D01*
X506726Y636515D01*
X509179Y635499D01*
X511810Y635153D01*
X514441Y635499D01*
X516894Y636515D01*
X518999Y638131D01*
X520615Y640237D01*
X521631Y642689D01*
X521977Y645320D01*
Y660240D01*
X521724Y662165D01*
X527230Y667672D01*
X528606D01*
X529232Y666402D01*
X528405Y665323D01*
X527389Y662871D01*
X527043Y660240D01*
Y645320D01*
X527389Y642689D01*
X528405Y640237D01*
X530021Y638131D01*
X532127Y636515D01*
X534579Y635499D01*
X537210Y635153D01*
X537951Y635251D01*
X557166Y616036D01*
X558532Y614987D01*
X560123Y614328D01*
X561830Y614104D01*
X604992D01*
X627322Y591773D01*
X626836Y590600D01*
X604520D01*
X603529Y590403D01*
X602689Y589841D01*
X595740Y582892D01*
X594470Y583419D01*
Y599090D01*
X582605D01*
X574338Y607358D01*
X572762Y608566D01*
X570928Y609326D01*
X568960Y609585D01*
X431140D01*
X417815Y622910D01*
Y638673D01*
X419015Y640237D01*
X420031Y642689D01*
X420377Y645320D01*
Y660240D01*
X420031Y662871D01*
X419015Y665323D01*
X417399Y667429D01*
X415294Y669045D01*
X412841Y670061D01*
X410210Y670407D01*
X407579Y670061D01*
X405126Y669045D01*
X403021Y667429D01*
X401405Y665323D01*
X400390Y662871D01*
X400043Y660240D01*
Y645320D01*
X400390Y642689D01*
X401405Y640237D01*
X402605Y638673D01*
Y619760D01*
Y542408D01*
X401202Y541005D01*
X372110D01*
X370142Y540746D01*
X368307Y539986D01*
X366732Y538778D01*
X354032Y526078D01*
X352824Y524502D01*
X352064Y522668D01*
X351805Y520700D01*
Y514487D01*
X350605Y512924D01*
X349590Y510471D01*
X349243Y507840D01*
Y507729D01*
X348456Y506704D01*
X347193Y503654D01*
X346762Y500380D01*
Y357570D01*
X346762Y357570D01*
X347193Y354296D01*
X348456Y351246D01*
X350466Y348626D01*
X357622Y341471D01*
Y330200D01*
X322990D01*
Y248920D01*
X436470D01*
Y249869D01*
X442174D01*
X484701Y207342D01*
Y189150D01*
Y184150D01*
Y172674D01*
X484701Y172674D01*
X485131Y169400D01*
X486395Y166350D01*
X488405Y163730D01*
X528999Y123137D01*
X528999Y123136D01*
X531618Y121126D01*
X534669Y119863D01*
X537942Y119432D01*
X537943Y119432D01*
X627380D01*
X627380Y119432D01*
X630654Y119863D01*
X633704Y121126D01*
X636324Y123136D01*
X656644Y143456D01*
X656644Y143456D01*
X658654Y146076D01*
X659917Y149126D01*
X660348Y152400D01*
X660348Y152400D01*
Y173848D01*
X661618Y174101D01*
X662146Y172826D01*
X664156Y170206D01*
X666776Y168196D01*
X669826Y166933D01*
X673100Y166502D01*
X676374Y166933D01*
X679424Y168196D01*
X682044Y170206D01*
X684054Y172826D01*
X685113Y175383D01*
X686487D01*
X687546Y172826D01*
X689556Y170206D01*
X692176Y168196D01*
X695226Y166933D01*
X698500Y166502D01*
X701774Y166933D01*
X704824Y168196D01*
X707444Y170206D01*
X709454Y172826D01*
X710513Y175383D01*
X711887D01*
X712946Y172826D01*
X714956Y170206D01*
X717576Y168196D01*
X720626Y166933D01*
X722630Y166669D01*
Y184150D01*
Y201631D01*
X720626Y201367D01*
X717576Y200104D01*
X714956Y198094D01*
X712946Y195474D01*
X711887Y192917D01*
X710513D01*
X709454Y195474D01*
X707444Y198094D01*
X706978Y198451D01*
X706903Y199805D01*
X749750Y242652D01*
X750923Y242166D01*
Y190022D01*
X737492Y176591D01*
X736289Y177184D01*
X736548Y179150D01*
Y182880D01*
X725170D01*
Y166669D01*
X725866Y166761D01*
X726459Y165558D01*
X705169Y144268D01*
X664722D01*
X663014Y144043D01*
X661423Y143384D01*
X660057Y142336D01*
X639226Y121504D01*
X638177Y120138D01*
X637518Y118547D01*
X637294Y116840D01*
Y108170D01*
X632350D01*
Y91090D01*
X655430D01*
Y108170D01*
X650486D01*
Y114108D01*
X667454Y131075D01*
X707902D01*
X709609Y131300D01*
X711200Y131959D01*
X712566Y133007D01*
X762184Y182626D01*
X763233Y183992D01*
X763892Y185583D01*
X764116Y187290D01*
Y567854D01*
X763892Y569561D01*
X763233Y571152D01*
X762184Y572518D01*
X639990Y694712D01*
X640476Y695885D01*
X734760D01*
X734936Y695920D01*
X740785Y695537D01*
D02*
G37*
G36*
X605432Y666402D02*
X604605Y665323D01*
X603590Y662871D01*
X603243Y660240D01*
Y645320D01*
X603590Y642689D01*
X604605Y640237D01*
X605472Y639106D01*
X604846Y637836D01*
X596574D01*
X595948Y639106D01*
X596815Y640237D01*
X597831Y642689D01*
X598177Y645320D01*
Y660240D01*
X597831Y662871D01*
X596815Y665323D01*
X595988Y666402D01*
X596614Y667672D01*
X604806D01*
X605432Y666402D01*
D02*
G37*
G36*
X580032D02*
X579205Y665323D01*
X578190Y662871D01*
X577843Y660240D01*
Y645320D01*
X578190Y642689D01*
X579205Y640237D01*
X580072Y639106D01*
X579446Y637836D01*
X575452D01*
X572644Y640645D01*
X572522Y641572D01*
X572245Y642240D01*
X572430Y642689D01*
X572777Y645320D01*
Y660240D01*
X572430Y662871D01*
X571415Y665323D01*
X570588Y666402D01*
X571214Y667672D01*
X579406D01*
X580032Y666402D01*
D02*
G37*
G36*
X629920Y570230D02*
X621030Y561340D01*
Y485140D01*
X605790D01*
X603250Y487680D01*
Y554990D01*
X548640D01*
X543560Y560070D01*
Y570230D01*
X561340D01*
X563880Y572770D01*
X589280D01*
X604520Y588010D01*
X629920D01*
Y570230D01*
D02*
G37*
G36*
X422612Y596602D02*
X424188Y595394D01*
X426022Y594634D01*
X427990Y594375D01*
X565810D01*
X571390Y588795D01*
Y582010D01*
X593061D01*
X593587Y580740D01*
X588207Y575360D01*
X563996D01*
X563880Y575360D01*
X563260Y575869D01*
Y580390D01*
X554990D01*
Y575120D01*
X560771D01*
X561297Y573850D01*
X560267Y572820D01*
X543560D01*
X542569Y572623D01*
X541729Y572061D01*
X541167Y571221D01*
X540970Y570230D01*
Y560070D01*
X541167Y559079D01*
X541729Y558239D01*
X546809Y553159D01*
X547649Y552597D01*
X548640Y552400D01*
X600660D01*
Y487680D01*
X600857Y486689D01*
X601419Y485849D01*
X603330Y483937D01*
Y482840D01*
X604660D01*
X604799Y482747D01*
X605790Y482550D01*
X621030D01*
X622021Y482747D01*
X622160Y482840D01*
X623490D01*
Y484488D01*
X623620Y485140D01*
Y560267D01*
X631751Y568399D01*
X632313Y569239D01*
X632510Y570230D01*
Y584926D01*
X633683Y585412D01*
X681364Y537732D01*
Y326245D01*
X674803Y319684D01*
X673100Y319908D01*
X669826Y319477D01*
X666776Y318214D01*
X664156Y316204D01*
X662146Y313584D01*
X661087Y311027D01*
X659713D01*
X658654Y313584D01*
X656644Y316204D01*
X654024Y318214D01*
X650974Y319477D01*
X647700Y319908D01*
X644426Y319477D01*
X641376Y318214D01*
X638756Y316204D01*
X636746Y313584D01*
X635483Y310534D01*
X635052Y307260D01*
Y297260D01*
Y189150D01*
Y179150D01*
Y157639D01*
X622141Y144728D01*
X543181D01*
X522576Y165333D01*
X523151Y166555D01*
X526022Y166933D01*
X529073Y168196D01*
X531692Y170206D01*
X533702Y172826D01*
X534761Y175383D01*
X536136D01*
X537195Y172826D01*
X539205Y170206D01*
X541825Y168196D01*
X544875Y166933D01*
X548149Y166502D01*
X551422Y166933D01*
X554473Y168196D01*
X557092Y170206D01*
X559102Y172826D01*
X560161Y175383D01*
X561536D01*
X562595Y172826D01*
X564605Y170206D01*
X567225Y168196D01*
X570275Y166933D01*
X572279Y166669D01*
Y184150D01*
Y201631D01*
X570275Y201367D01*
X567225Y200104D01*
X564605Y198094D01*
X562595Y195474D01*
X561536Y192917D01*
X560161D01*
X559102Y195474D01*
X557092Y198094D01*
X554473Y200104D01*
X551422Y201367D01*
X548149Y201798D01*
X544875Y201367D01*
X541825Y200104D01*
X539205Y198094D01*
X537195Y195474D01*
X536136Y192917D01*
X534761D01*
X533702Y195474D01*
X531692Y198094D01*
X529073Y200104D01*
X526022Y201367D01*
X522749Y201798D01*
X519475Y201367D01*
X516425Y200104D01*
X513805Y198094D01*
X511795Y195474D01*
X511267Y194199D01*
X509997Y194452D01*
Y212581D01*
X509997Y212581D01*
X509566Y215855D01*
X508302Y218905D01*
X506292Y221525D01*
X456357Y271460D01*
X453737Y273470D01*
X450687Y274734D01*
X447413Y275165D01*
X447413Y275165D01*
X436470D01*
Y330200D01*
X382918D01*
Y346710D01*
X382487Y349984D01*
X381224Y353034D01*
X379214Y355654D01*
X379214Y355654D01*
X378810Y356057D01*
Y358250D01*
X376617D01*
X372058Y362809D01*
Y371407D01*
X373328Y371793D01*
X373594Y371394D01*
X374655Y370686D01*
X375905Y370437D01*
X393575D01*
X394826Y370686D01*
X395886Y371394D01*
X396594Y372454D01*
X396843Y373705D01*
Y394135D01*
X399200D01*
X401168Y394394D01*
X403003Y395154D01*
X404578Y396362D01*
X418186Y409971D01*
X419395Y411546D01*
X420155Y413381D01*
X420414Y415349D01*
Y466969D01*
X436287Y482842D01*
X438241Y483100D01*
X440694Y484115D01*
X442799Y485731D01*
X444415Y487836D01*
X445430Y490289D01*
X445777Y492920D01*
Y507840D01*
X445430Y510471D01*
X444415Y512924D01*
X442799Y515029D01*
X440694Y516645D01*
X438241Y517660D01*
X435610Y518007D01*
X432979Y517660D01*
X430527Y516645D01*
X428421Y515029D01*
X426805Y512924D01*
X425789Y510471D01*
X425443Y507840D01*
Y493508D01*
X420827Y488892D01*
X419750Y489611D01*
X420031Y490289D01*
X420377Y492920D01*
Y507840D01*
X420031Y510471D01*
X419015Y512924D01*
X417399Y515029D01*
X415294Y516645D01*
X412841Y517660D01*
X410210Y518007D01*
X407579Y517660D01*
X405126Y516645D01*
X403021Y515029D01*
X401405Y512924D01*
X400390Y510471D01*
X400043Y507840D01*
Y493508D01*
X395427Y488892D01*
X394350Y489611D01*
X394631Y490289D01*
X394977Y492920D01*
Y507840D01*
X394631Y510471D01*
X393615Y512924D01*
X391999Y515029D01*
X389893Y516645D01*
X387441Y517660D01*
X384810Y518007D01*
X382179Y517660D01*
X379726Y516645D01*
X377621Y515029D01*
X376005Y512924D01*
X374990Y510471D01*
X374643Y507840D01*
Y492920D01*
X374990Y490289D01*
X376005Y487836D01*
X377621Y485731D01*
X379726Y484115D01*
X382179Y483100D01*
X384810Y482753D01*
X387441Y483100D01*
X388119Y483380D01*
X388838Y482303D01*
X380632Y474098D01*
X379424Y472523D01*
X378664Y470688D01*
X378405Y468720D01*
Y451253D01*
X377175D01*
X375924Y451004D01*
X374864Y450296D01*
X374156Y449235D01*
X373907Y447985D01*
Y415615D01*
X374156Y414365D01*
X374864Y413304D01*
X375924Y412596D01*
X377175Y412347D01*
X394845D01*
X396096Y412596D01*
X397156Y413304D01*
X397864Y414365D01*
X398113Y415615D01*
Y447985D01*
X397864Y449235D01*
X397156Y450296D01*
X396096Y451004D01*
X394845Y451253D01*
X393615D01*
Y465570D01*
X410887Y482842D01*
X412841Y483100D01*
X413519Y483380D01*
X414238Y482303D01*
X407431Y475496D01*
X406223Y473921D01*
X405463Y472087D01*
X405204Y470119D01*
Y418499D01*
X396050Y409345D01*
X389240D01*
X389223Y409343D01*
X375905D01*
X374655Y409094D01*
X373594Y408386D01*
X373328Y407987D01*
X372058Y408373D01*
Y500380D01*
X371627Y503654D01*
X370364Y506704D01*
X369577Y507729D01*
Y507840D01*
X369230Y510471D01*
X368215Y512924D01*
X367015Y514487D01*
Y517550D01*
X375260Y525795D01*
X404352D01*
X406320Y526054D01*
X408155Y526814D01*
X409730Y528022D01*
X415588Y533880D01*
X416796Y535455D01*
X417111Y536215D01*
X417556Y537290D01*
X417815Y539258D01*
Y599740D01*
X418988Y600226D01*
X422612Y596602D01*
D02*
G37*
G36*
X702253Y589563D02*
X701767Y588390D01*
X696490D01*
Y579120D01*
X708660D01*
Y581497D01*
X709833Y581983D01*
X733791Y558025D01*
Y316909D01*
X732521Y316451D01*
X730224Y318214D01*
X727174Y319477D01*
X725170Y319741D01*
Y302260D01*
Y284779D01*
X727174Y285043D01*
X730224Y286306D01*
X732521Y288069D01*
X733791Y287611D01*
Y254747D01*
X679229Y200184D01*
X676374Y201367D01*
X673100Y201798D01*
X669826Y201367D01*
X666776Y200104D01*
X664156Y198094D01*
X662146Y195474D01*
X661618Y194199D01*
X660348Y194452D01*
Y291958D01*
X661618Y292211D01*
X662146Y290936D01*
X664156Y288316D01*
X666776Y286306D01*
X669826Y285043D01*
X673100Y284612D01*
X676374Y285043D01*
X679424Y286306D01*
X682044Y288316D01*
X684054Y290936D01*
X685113Y293493D01*
X686487D01*
X687546Y290936D01*
X689556Y288316D01*
X692176Y286306D01*
X695226Y285043D01*
X698500Y284612D01*
X701774Y285043D01*
X704824Y286306D01*
X707444Y288316D01*
X709454Y290936D01*
X710513Y293493D01*
X711887D01*
X712946Y290936D01*
X714956Y288316D01*
X717576Y286306D01*
X720626Y285043D01*
X722630Y284779D01*
Y302260D01*
Y319741D01*
X720626Y319477D01*
X717576Y318214D01*
X714956Y316204D01*
X712946Y313584D01*
X711887Y311027D01*
X710513D01*
X709454Y313584D01*
X707444Y316204D01*
X705096Y318005D01*
Y544830D01*
X704872Y546537D01*
X704213Y548128D01*
X703164Y549494D01*
X686522Y566137D01*
X687008Y567310D01*
X693950D01*
Y576580D01*
X681780D01*
Y572538D01*
X680607Y572052D01*
X617640Y635019D01*
X617888Y636264D01*
X618493Y636515D01*
X620599Y638131D01*
X622215Y640237D01*
X623231Y642689D01*
X623577Y645320D01*
Y660240D01*
X623231Y662871D01*
X622215Y665323D01*
X621388Y666402D01*
X622014Y667672D01*
X624145D01*
X702253Y589563D01*
D02*
G37*
G36*
X704189Y197417D02*
X697905Y199140D01*
X697930Y199161D01*
X697953Y199240D01*
X697973Y199375D01*
X697991Y199568D01*
X698034Y200913D01*
X698039Y201929D01*
X704039D01*
X704189Y197417D01*
D02*
G37*
%LPC*%
G36*
X386080Y670240D02*
Y654050D01*
X394977D01*
Y660240D01*
X394631Y662871D01*
X393615Y665323D01*
X391999Y667429D01*
X389893Y669045D01*
X387441Y670061D01*
X386080Y670240D01*
D02*
G37*
G36*
X383540D02*
X382179Y670061D01*
X379726Y669045D01*
X377621Y667429D01*
X376005Y665323D01*
X374990Y662871D01*
X374643Y660240D01*
Y654050D01*
X383540D01*
Y670240D01*
D02*
G37*
G36*
X737057Y683020D02*
X733603D01*
X730214Y682346D01*
X727022Y681024D01*
X724149Y679104D01*
X721706Y676661D01*
X719786Y673788D01*
X718464Y670596D01*
X717790Y667207D01*
Y663753D01*
X718464Y660364D01*
X719786Y657172D01*
X721706Y654299D01*
X724149Y651856D01*
X727022Y649936D01*
X730214Y648614D01*
X733603Y647940D01*
X737057D01*
X740446Y648614D01*
X743638Y649936D01*
X746511Y651856D01*
X748954Y654299D01*
X750874Y657172D01*
X752196Y660364D01*
X752870Y663753D01*
Y667207D01*
X752196Y670596D01*
X750874Y673788D01*
X748954Y676661D01*
X746511Y679104D01*
X743638Y681024D01*
X740446Y682346D01*
X737057Y683020D01*
D02*
G37*
G36*
X34748D02*
X31293D01*
X27904Y682346D01*
X24712Y681024D01*
X21839Y679104D01*
X19396Y676661D01*
X17476Y673788D01*
X16154Y670596D01*
X15480Y667207D01*
Y663753D01*
X16154Y660364D01*
X17476Y657172D01*
X19396Y654299D01*
X21839Y651856D01*
X24712Y649936D01*
X27904Y648614D01*
X31293Y647940D01*
X34748D01*
X38136Y648614D01*
X41328Y649936D01*
X44201Y651856D01*
X46644Y654299D01*
X48564Y657172D01*
X49886Y660364D01*
X50560Y663753D01*
Y667207D01*
X49886Y670596D01*
X48564Y673788D01*
X46644Y676661D01*
X44201Y679104D01*
X41328Y681024D01*
X38136Y682346D01*
X34748Y683020D01*
D02*
G37*
G36*
X394977Y651510D02*
X386080D01*
Y635320D01*
X387441Y635499D01*
X389893Y636515D01*
X391999Y638131D01*
X393615Y640237D01*
X394631Y642689D01*
X394977Y645320D01*
Y651510D01*
D02*
G37*
G36*
X383540D02*
X374643D01*
Y645320D01*
X374990Y642689D01*
X376005Y640237D01*
X377621Y638131D01*
X379726Y636515D01*
X382179Y635499D01*
X383540Y635320D01*
Y651510D01*
D02*
G37*
G36*
X435610Y670407D02*
X432979Y670061D01*
X430527Y669045D01*
X428421Y667429D01*
X426805Y665323D01*
X425789Y662871D01*
X425443Y660240D01*
Y645320D01*
X425789Y642689D01*
X426805Y640237D01*
X428421Y638131D01*
X430527Y636515D01*
X432979Y635499D01*
X435610Y635153D01*
X438241Y635499D01*
X440694Y636515D01*
X442799Y638131D01*
X444415Y640237D01*
X445430Y642689D01*
X445777Y645320D01*
Y660240D01*
X445430Y662871D01*
X444415Y665323D01*
X442799Y667429D01*
X440694Y669045D01*
X438241Y670061D01*
X435610Y670407D01*
D02*
G37*
G36*
X233190Y691456D02*
X120612D01*
X118905Y691232D01*
X117314Y690573D01*
X115948Y689524D01*
X2956Y576532D01*
X1907Y575166D01*
X1248Y573575D01*
X1024Y571868D01*
Y156151D01*
X1248Y154443D01*
X1907Y152852D01*
X2956Y151486D01*
X19786Y134656D01*
X21152Y133607D01*
X22743Y132948D01*
X24451Y132724D01*
X225600D01*
X227307Y132948D01*
X228898Y133607D01*
X230264Y134656D01*
X257417Y161808D01*
X260350Y161422D01*
X263624Y161853D01*
X266674Y163116D01*
X269294Y165126D01*
X271304Y167746D01*
X272363Y170303D01*
X273737D01*
X274796Y167746D01*
X276806Y165126D01*
X279426Y163116D01*
X282476Y161853D01*
X285347Y161475D01*
X285922Y160253D01*
X221487Y95819D01*
X174690D01*
X174690Y95819D01*
X172528Y95389D01*
X170696Y94164D01*
X170696Y94164D01*
X151682Y75150D01*
X139590D01*
Y58070D01*
X162670D01*
Y70162D01*
X177030Y84522D01*
X223827D01*
X223827Y84521D01*
X225988Y84951D01*
X227821Y86176D01*
X301788Y160143D01*
X302962Y159657D01*
Y123670D01*
X255012Y75720D01*
X239920D01*
Y58640D01*
X263000D01*
Y67732D01*
X312604Y117336D01*
X312604Y117336D01*
X313829Y119168D01*
X314259Y121330D01*
X314258Y121330D01*
Y160752D01*
X315049Y161934D01*
X315478Y164096D01*
X315478Y164096D01*
Y365840D01*
X320777Y371139D01*
X321455Y370686D01*
X322705Y370437D01*
X340375D01*
X341626Y370686D01*
X342686Y371394D01*
X343394Y372454D01*
X343643Y373705D01*
Y406075D01*
X343394Y407326D01*
X342686Y408386D01*
X341626Y409094D01*
X340375Y409343D01*
X322705D01*
X321455Y409094D01*
X320394Y408386D01*
X319686Y407326D01*
X319437Y406075D01*
Y385775D01*
X308112Y374450D01*
X306938Y374936D01*
Y409440D01*
X319437Y421939D01*
X320707Y421413D01*
Y415615D01*
X320956Y414365D01*
X321664Y413304D01*
X322724Y412596D01*
X323975Y412347D01*
X341645D01*
X342896Y412596D01*
X343956Y413304D01*
X344664Y414365D01*
X344913Y415615D01*
Y447985D01*
X344664Y449235D01*
X343956Y450296D01*
X342896Y451004D01*
X341645Y451253D01*
X323975D01*
X322724Y451004D01*
X321664Y450296D01*
X320956Y449235D01*
X320707Y447985D01*
Y433963D01*
X317825D01*
X315663Y433533D01*
X313831Y432309D01*
X313831Y432309D01*
X297296Y415774D01*
X296071Y413942D01*
X295641Y411780D01*
X295641Y411780D01*
Y193719D01*
X294371Y193261D01*
X292074Y195024D01*
X289024Y196287D01*
X287020Y196551D01*
Y179070D01*
X284480D01*
Y196551D01*
X282476Y196287D01*
X279426Y195024D01*
X276806Y193014D01*
X274796Y190394D01*
X273737Y187837D01*
X272363D01*
X271304Y190394D01*
X269294Y193014D01*
X266674Y195024D01*
X263624Y196287D01*
X260350Y196718D01*
X257076Y196287D01*
X254026Y195024D01*
X251406Y193014D01*
X249396Y190394D01*
X248337Y187837D01*
X246963D01*
X245904Y190394D01*
X243894Y193014D01*
X241274Y195024D01*
X238224Y196287D01*
X234950Y196718D01*
X231676Y196287D01*
X228626Y195024D01*
X226006Y193014D01*
X223996Y190394D01*
X222937Y187837D01*
X221563D01*
X220504Y190394D01*
X218494Y193014D01*
X215874Y195024D01*
X212824Y196287D01*
X210820Y196551D01*
Y179070D01*
Y161589D01*
X211424Y161668D01*
X212017Y160466D01*
X208008Y156456D01*
X31549D01*
X24756Y163249D01*
Y310267D01*
X26026Y310793D01*
X28193Y308626D01*
X27931Y307994D01*
X27501Y304720D01*
Y294720D01*
X27931Y291446D01*
X29195Y288396D01*
X31205Y285776D01*
X33825Y283766D01*
X36875Y282503D01*
X40149Y282072D01*
X43422Y282503D01*
X46473Y283766D01*
X49092Y285776D01*
X51102Y288396D01*
X52161Y290953D01*
X53536D01*
X54595Y288396D01*
X56605Y285776D01*
X59225Y283766D01*
X62275Y282503D01*
X65549Y282072D01*
X68822Y282503D01*
X71873Y283766D01*
X74492Y285776D01*
X76502Y288396D01*
X77561Y290953D01*
X78936D01*
X79995Y288396D01*
X82005Y285776D01*
X84625Y283766D01*
X87675Y282503D01*
X90949Y282072D01*
X94222Y282503D01*
X97273Y283766D01*
X99892Y285776D01*
X101902Y288396D01*
X102961Y290953D01*
X104336D01*
X105395Y288396D01*
X107405Y285776D01*
X110024Y283766D01*
X113075Y282503D01*
X116349Y282072D01*
X119622Y282503D01*
X122673Y283766D01*
X125292Y285776D01*
X127302Y288396D01*
X128566Y291446D01*
X128997Y294720D01*
Y304720D01*
X128566Y307994D01*
X127302Y311044D01*
X126832Y311657D01*
X147270Y332095D01*
X148443Y331609D01*
Y301202D01*
X43573Y196332D01*
X40640Y196718D01*
X37366Y196287D01*
X34316Y195024D01*
X31696Y193014D01*
X29686Y190394D01*
X28423Y187344D01*
X27992Y184070D01*
Y174070D01*
X28423Y170796D01*
X29686Y167746D01*
X31696Y165126D01*
X34316Y163116D01*
X37366Y161853D01*
X40640Y161422D01*
X43914Y161853D01*
X46964Y163116D01*
X49584Y165126D01*
X51594Y167746D01*
X52653Y170303D01*
X54027D01*
X55086Y167746D01*
X57096Y165126D01*
X59716Y163116D01*
X62766Y161853D01*
X66040Y161422D01*
X69314Y161853D01*
X72364Y163116D01*
X74984Y165126D01*
X76994Y167746D01*
X78053Y170303D01*
X79427D01*
X80486Y167746D01*
X82496Y165126D01*
X85116Y163116D01*
X88166Y161853D01*
X91440Y161422D01*
X94714Y161853D01*
X97764Y163116D01*
X100384Y165126D01*
X102394Y167746D01*
X103453Y170303D01*
X104827D01*
X105886Y167746D01*
X107896Y165126D01*
X110516Y163116D01*
X113566Y161853D01*
X116840Y161422D01*
X120114Y161853D01*
X123164Y163116D01*
X125784Y165126D01*
X127794Y167746D01*
X129057Y170796D01*
X129488Y174070D01*
Y182389D01*
X191324Y244226D01*
X192373Y245592D01*
X193032Y247183D01*
X193256Y248890D01*
Y285162D01*
X194526Y285569D01*
X196876Y283766D01*
X199926Y282503D01*
X203200Y282072D01*
X206474Y282503D01*
X209524Y283766D01*
X212144Y285776D01*
X214154Y288396D01*
X215213Y290953D01*
X216587D01*
X217646Y288396D01*
X219656Y285776D01*
X222276Y283766D01*
X225326Y282503D01*
X228600Y282072D01*
X231874Y282503D01*
X234924Y283766D01*
X237544Y285776D01*
X239554Y288396D01*
X240613Y290953D01*
X241987D01*
X243046Y288396D01*
X245056Y285776D01*
X247676Y283766D01*
X250726Y282503D01*
X254000Y282072D01*
X257274Y282503D01*
X260324Y283766D01*
X262944Y285776D01*
X264954Y288396D01*
X266013Y290953D01*
X267387D01*
X268446Y288396D01*
X270456Y285776D01*
X273076Y283766D01*
X276126Y282503D01*
X279400Y282072D01*
X282674Y282503D01*
X285724Y283766D01*
X288344Y285776D01*
X290354Y288396D01*
X291617Y291446D01*
X292048Y294720D01*
Y304720D01*
X291617Y307994D01*
X290354Y311044D01*
X288344Y313664D01*
X285724Y315674D01*
X282674Y316937D01*
X279400Y317368D01*
X276126Y316937D01*
X273076Y315674D01*
X270456Y313664D01*
X268446Y311044D01*
X267387Y308487D01*
X266013D01*
X264954Y311044D01*
X262944Y313664D01*
X260324Y315674D01*
X257274Y316937D01*
X254000Y317368D01*
X250726Y316937D01*
X247676Y315674D01*
X245056Y313664D01*
X243046Y311044D01*
X241987Y308487D01*
X240613D01*
X239554Y311044D01*
X237544Y313664D01*
X234924Y315674D01*
X231874Y316937D01*
X228600Y317368D01*
X225326Y316937D01*
X222276Y315674D01*
X219656Y313664D01*
X217646Y311044D01*
X216587Y308487D01*
X215213D01*
X214154Y311044D01*
X212144Y313664D01*
X209524Y315674D01*
X206474Y316937D01*
X203200Y317368D01*
X199926Y316937D01*
X196876Y315674D01*
X194536Y313879D01*
X193267Y314296D01*
Y330990D01*
X262474Y400198D01*
X263523Y401564D01*
X264182Y403155D01*
X264406Y404863D01*
Y485276D01*
X264999Y485731D01*
X266615Y487836D01*
X267631Y490289D01*
X267977Y492920D01*
Y507840D01*
X267631Y510471D01*
X266615Y512924D01*
X264999Y515029D01*
X262894Y516645D01*
X260441Y517660D01*
X257810Y518007D01*
X255179Y517660D01*
X252726Y516645D01*
X250621Y515029D01*
X249005Y512924D01*
X247990Y510471D01*
X247643Y507840D01*
Y492920D01*
X247990Y490289D01*
X249005Y487836D01*
X250621Y485731D01*
X251214Y485276D01*
Y407595D01*
X240180Y396561D01*
X239006Y397047D01*
Y485276D01*
X239599Y485731D01*
X241215Y487836D01*
X242230Y490289D01*
X242577Y492920D01*
Y507840D01*
X242230Y510471D01*
X241215Y512924D01*
X239599Y515029D01*
X237493Y516645D01*
X235041Y517660D01*
X232410Y518007D01*
X229779Y517660D01*
X227327Y516645D01*
X225221Y515029D01*
X223605Y512924D01*
X222589Y510471D01*
X222243Y507840D01*
Y492920D01*
X222380Y491878D01*
X221177Y491285D01*
X218418Y494044D01*
X217177Y494997D01*
Y507840D01*
X216831Y510471D01*
X215815Y512924D01*
X214199Y515029D01*
X212094Y516645D01*
X209641Y517660D01*
X207010Y518007D01*
X204379Y517660D01*
X201926Y516645D01*
X199821Y515029D01*
X198205Y512924D01*
X197190Y510471D01*
X196843Y507840D01*
Y492920D01*
X197190Y490289D01*
X198205Y487836D01*
X199821Y485731D01*
X201926Y484115D01*
X204379Y483100D01*
X207010Y482753D01*
X209641Y483100D01*
X210090Y483285D01*
X210759Y483008D01*
X210802Y483003D01*
X211844Y481961D01*
Y398036D01*
X189380Y375573D01*
X188206Y376059D01*
Y485276D01*
X188799Y485731D01*
X190415Y487836D01*
X191430Y490289D01*
X191777Y492920D01*
Y507840D01*
X191430Y510471D01*
X190415Y512924D01*
X188799Y515029D01*
X186693Y516645D01*
X184241Y517660D01*
X181610Y518007D01*
X178979Y517660D01*
X176527Y516645D01*
X174421Y515029D01*
X172805Y512924D01*
X171789Y510471D01*
X171443Y507840D01*
Y492920D01*
X171789Y490289D01*
X172805Y487836D01*
X174421Y485731D01*
X175014Y485276D01*
Y376112D01*
X152288Y353387D01*
X151115Y353873D01*
Y481144D01*
X153220Y483248D01*
X153579Y483100D01*
X156210Y482753D01*
X158841Y483100D01*
X161294Y484115D01*
X163399Y485731D01*
X165015Y487836D01*
X166031Y490289D01*
X166377Y492920D01*
Y507840D01*
X166031Y510471D01*
X165015Y512924D01*
X163399Y515029D01*
X161294Y516645D01*
X158841Y517660D01*
X156210Y518007D01*
X153579Y517660D01*
X151126Y516645D01*
X149021Y515029D01*
X147405Y512924D01*
X146390Y510471D01*
X146043Y507840D01*
Y497522D01*
X145787Y497326D01*
X142247Y493786D01*
X140977Y494312D01*
Y507840D01*
X140631Y510471D01*
X139615Y512924D01*
X137999Y515029D01*
X135893Y516645D01*
X133441Y517660D01*
X130810Y518007D01*
X128179Y517660D01*
X125726Y516645D01*
X123621Y515029D01*
X122005Y512924D01*
X120990Y510471D01*
X120643Y507840D01*
Y492920D01*
X120990Y490289D01*
X122005Y487836D01*
X123205Y486273D01*
Y409457D01*
X121935Y409117D01*
X120525Y411560D01*
X118190Y413895D01*
X115330Y415545D01*
X112141Y416400D01*
X111040D01*
X101585Y425855D01*
Y511200D01*
X173330Y582945D01*
X302257D01*
X304225Y583204D01*
X306059Y583964D01*
X307634Y585172D01*
X357824Y635362D01*
X359410Y635153D01*
X362041Y635499D01*
X364493Y636515D01*
X366599Y638131D01*
X368215Y640237D01*
X369230Y642689D01*
X369577Y645320D01*
Y660240D01*
X369230Y662871D01*
X368215Y665323D01*
X366599Y667429D01*
X364493Y669045D01*
X362041Y670061D01*
X359410Y670407D01*
X356779Y670061D01*
X354327Y669045D01*
X352221Y667429D01*
X350605Y665323D01*
X349590Y662871D01*
X349243Y660240D01*
Y648260D01*
X349109Y648158D01*
X345256Y644305D01*
X344117Y644866D01*
X344177Y645320D01*
Y660240D01*
X343830Y662871D01*
X342815Y665323D01*
X341199Y667429D01*
X339094Y669045D01*
X336641Y670061D01*
X334010Y670407D01*
X331379Y670061D01*
X328927Y669045D01*
X326821Y667429D01*
X325205Y665323D01*
X324189Y662871D01*
X323843Y660240D01*
Y645320D01*
X324089Y643454D01*
X292973Y612338D01*
X292238Y612427D01*
X291766Y613751D01*
X311448Y633432D01*
X312656Y635008D01*
X313195Y636309D01*
X313694Y636515D01*
X315799Y638131D01*
X317415Y640237D01*
X318431Y642689D01*
X318777Y645320D01*
Y660240D01*
X318431Y662871D01*
X317415Y665323D01*
X315799Y667429D01*
X313694Y669045D01*
X311241Y670061D01*
X308610Y670407D01*
X305979Y670061D01*
X303526Y669045D01*
X301421Y667429D01*
X299805Y665323D01*
X298790Y662871D01*
X298443Y660240D01*
Y645320D01*
X298712Y643280D01*
X298549Y642044D01*
X281170Y624665D01*
X270896D01*
X270410Y625838D01*
X280220Y635648D01*
X280579Y635499D01*
X283210Y635153D01*
X285841Y635499D01*
X288293Y636515D01*
X290399Y638131D01*
X292015Y640237D01*
X293030Y642689D01*
X293377Y645320D01*
Y660240D01*
X293030Y662871D01*
X292015Y665323D01*
X290399Y667429D01*
X288293Y669045D01*
X285841Y670061D01*
X283210Y670407D01*
X280579Y670061D01*
X278127Y669045D01*
X276021Y667429D01*
X274405Y665323D01*
X273389Y662871D01*
X273043Y660240D01*
Y649922D01*
X272787Y649726D01*
X269247Y646186D01*
X267977Y646712D01*
Y660240D01*
X267631Y662871D01*
X266615Y665323D01*
X264999Y667429D01*
X262894Y669045D01*
X260441Y670061D01*
X257810Y670407D01*
X257069Y670310D01*
X237854Y689524D01*
X236488Y690573D01*
X234897Y691232D01*
X233190Y691456D01*
D02*
G37*
G36*
X391810Y574610D02*
X383540D01*
Y569340D01*
X391810D01*
Y574610D01*
D02*
G37*
G36*
X381000D02*
X372730D01*
Y569340D01*
X381000D01*
Y574610D01*
D02*
G37*
G36*
X391810Y566800D02*
X383540D01*
Y561530D01*
X391810D01*
Y566800D01*
D02*
G37*
G36*
X381000D02*
X372730D01*
Y561530D01*
X381000D01*
Y566800D01*
D02*
G37*
G36*
X360260Y571595D02*
X322760D01*
X320792Y571336D01*
X318958Y570576D01*
X317382Y569368D01*
X316174Y567793D01*
X315890Y567108D01*
X315582Y566930D01*
X313690Y565038D01*
X312352Y562722D01*
X311660Y560138D01*
Y559395D01*
X303232Y550968D01*
X302024Y549393D01*
X301264Y547558D01*
X301005Y545590D01*
Y514487D01*
X299805Y512924D01*
X298790Y510471D01*
X298443Y507840D01*
Y492920D01*
X298790Y490289D01*
X299805Y487836D01*
X301421Y485731D01*
X303526Y484115D01*
X305979Y483100D01*
X308610Y482753D01*
X311241Y483100D01*
X313694Y484115D01*
X315799Y485731D01*
X317415Y487836D01*
X318431Y490289D01*
X318777Y492920D01*
Y507840D01*
X318431Y510471D01*
X317415Y512924D01*
X316215Y514487D01*
Y542440D01*
X320528Y546753D01*
X320792Y546644D01*
X322760Y546385D01*
X357110D01*
X357962Y545532D01*
X359538Y544324D01*
X360297Y544009D01*
X361372Y543564D01*
X363340Y543305D01*
X379540D01*
X381508Y543564D01*
X383343Y544324D01*
X384914Y545530D01*
X391810D01*
Y558610D01*
X372730D01*
Y558515D01*
X367865D01*
Y563990D01*
X367606Y565958D01*
X366846Y567793D01*
X365638Y569368D01*
X364062Y570576D01*
X362228Y571336D01*
X360260Y571595D01*
D02*
G37*
G36*
X216550Y540450D02*
X208280D01*
Y535180D01*
X216550D01*
Y540450D01*
D02*
G37*
G36*
X205740D02*
X197470D01*
Y535180D01*
X205740D01*
Y540450D01*
D02*
G37*
G36*
X216550Y532640D02*
X208280D01*
Y527370D01*
X216550D01*
Y532640D01*
D02*
G37*
G36*
X205740D02*
X197470D01*
Y527370D01*
X205740D01*
Y532640D01*
D02*
G37*
G36*
X335280Y517840D02*
Y501650D01*
X344177D01*
Y507840D01*
X343830Y510471D01*
X342815Y512924D01*
X341199Y515029D01*
X339094Y516645D01*
X336641Y517660D01*
X335280Y517840D01*
D02*
G37*
G36*
X332740D02*
X331379Y517660D01*
X328927Y516645D01*
X326821Y515029D01*
X325205Y512924D01*
X324189Y510471D01*
X323843Y507840D01*
Y501650D01*
X332740D01*
Y517840D01*
D02*
G37*
G36*
X344177Y499110D02*
X335280D01*
Y482920D01*
X336641Y483100D01*
X339094Y484115D01*
X341199Y485731D01*
X342815Y487836D01*
X343830Y490289D01*
X344177Y492920D01*
Y499110D01*
D02*
G37*
G36*
X332740D02*
X323843D01*
Y492920D01*
X324189Y490289D01*
X325205Y487836D01*
X326821Y485731D01*
X328927Y484115D01*
X331379Y483100D01*
X332740Y482920D01*
Y499110D01*
D02*
G37*
G36*
X277800Y571530D02*
X225220D01*
Y566595D01*
X216090D01*
X214122Y566336D01*
X213047Y565891D01*
X212288Y565576D01*
X210712Y564368D01*
X204855Y558510D01*
X203646Y556935D01*
X203517Y556625D01*
X203207Y556496D01*
X203147Y556450D01*
X197470D01*
Y543370D01*
X203147D01*
X203207Y543324D01*
X205042Y542564D01*
X207010Y542305D01*
X208010D01*
X209978Y542564D01*
X211812Y543324D01*
X211873Y543370D01*
X216550D01*
Y547980D01*
X216818Y548330D01*
X217266Y549411D01*
X219240Y551385D01*
X225220D01*
Y546450D01*
X273375D01*
X275605Y544220D01*
Y514487D01*
X274405Y512924D01*
X273389Y510471D01*
X273043Y507840D01*
Y492920D01*
X273389Y490289D01*
X274405Y487836D01*
X276021Y485731D01*
X278127Y484115D01*
X280579Y483100D01*
X283210Y482753D01*
X285841Y483100D01*
X288293Y484115D01*
X290399Y485731D01*
X292015Y487836D01*
X293030Y490289D01*
X293377Y492920D01*
Y507840D01*
X293030Y510471D01*
X292015Y512924D01*
X290815Y514487D01*
Y547370D01*
X290556Y549338D01*
X290111Y550413D01*
X289796Y551172D01*
X288588Y552748D01*
X281940Y559395D01*
Y560138D01*
X281248Y562722D01*
X279910Y565038D01*
X278018Y566930D01*
X277800Y567056D01*
Y571530D01*
D02*
G37*
G36*
X725170Y201631D02*
Y185420D01*
X736548D01*
Y189150D01*
X736117Y192424D01*
X734854Y195474D01*
X732844Y198094D01*
X730224Y200104D01*
X727174Y201367D01*
X725170Y201631D01*
D02*
G37*
G36*
X208280Y196551D02*
X206276Y196287D01*
X203226Y195024D01*
X200606Y193014D01*
X198596Y190394D01*
X197333Y187344D01*
X196902Y184070D01*
Y180340D01*
X208280D01*
Y196551D01*
D02*
G37*
G36*
Y177800D02*
X196902D01*
Y174070D01*
X197333Y170796D01*
X198596Y167746D01*
X200606Y165126D01*
X203226Y163116D01*
X206276Y161853D01*
X208280Y161589D01*
Y177800D01*
D02*
G37*
G36*
X383442Y202324D02*
X376017D01*
X374544Y202031D01*
X373294Y201196D01*
X372459Y199946D01*
X372166Y198472D01*
Y181072D01*
X372125Y180760D01*
Y166370D01*
X372166Y166058D01*
Y163048D01*
X372459Y161574D01*
X373294Y160324D01*
X374544Y159489D01*
X376017Y159196D01*
X376149D01*
X377205Y158140D01*
Y153890D01*
X373270D01*
Y142304D01*
X372097Y141819D01*
X364188Y149728D01*
X362612Y150936D01*
X361716Y151307D01*
X361935Y152970D01*
Y180760D01*
X361894Y181072D01*
Y198472D01*
X361601Y199946D01*
X360766Y201196D01*
X359516Y202031D01*
X358042Y202324D01*
X350617D01*
X349144Y202031D01*
X347894Y201196D01*
X347059Y199946D01*
X346766Y198472D01*
Y181072D01*
X346725Y180760D01*
Y156120D01*
X345332Y154728D01*
X344690Y153890D01*
X335170D01*
Y136810D01*
X347216D01*
X347710Y136745D01*
X355660D01*
X373270Y119135D01*
Y112810D01*
X396350D01*
Y129890D01*
X384025D01*
X378279Y135637D01*
X378764Y136810D01*
X396350D01*
Y153890D01*
X392415D01*
Y161290D01*
X392156Y163258D01*
X391396Y165093D01*
X390188Y166668D01*
X387335Y169520D01*
Y180760D01*
X387294Y181072D01*
Y198472D01*
X387001Y199946D01*
X386166Y201196D01*
X384916Y202031D01*
X383442Y202324D01*
D02*
G37*
G36*
X437530Y137350D02*
X429260D01*
Y132080D01*
X437530D01*
Y137350D01*
D02*
G37*
G36*
X426720D02*
X418450D01*
Y132080D01*
X426720D01*
Y137350D01*
D02*
G37*
G36*
X437530Y129540D02*
X429260D01*
Y124270D01*
X437530D01*
Y129540D01*
D02*
G37*
G36*
X426720D02*
X418450D01*
Y124270D01*
X426720D01*
Y129540D01*
D02*
G37*
G36*
X358250Y129890D02*
X347980D01*
Y122620D01*
X358250D01*
Y129890D01*
D02*
G37*
G36*
X345440D02*
X335170D01*
Y122620D01*
X345440D01*
Y129890D01*
D02*
G37*
G36*
X358250Y120080D02*
X347980D01*
Y112810D01*
X358250D01*
Y120080D01*
D02*
G37*
G36*
X345440D02*
X335170D01*
Y112810D01*
X345440D01*
Y120080D01*
D02*
G37*
G36*
X687180Y108170D02*
X676910D01*
Y100900D01*
X687180D01*
Y108170D01*
D02*
G37*
G36*
X674370D02*
X664100D01*
Y100900D01*
X674370D01*
Y108170D01*
D02*
G37*
G36*
X687180Y98360D02*
X676910D01*
Y91090D01*
X687180D01*
Y98360D01*
D02*
G37*
G36*
X674370D02*
X664100D01*
Y91090D01*
X674370D01*
Y98360D01*
D02*
G37*
G36*
X687180Y84170D02*
X664100D01*
Y83235D01*
X655430D01*
Y84170D01*
X632350D01*
Y67090D01*
X655430D01*
Y68025D01*
X664100D01*
Y67090D01*
X670314D01*
Y58892D01*
X668991Y57570D01*
X665240D01*
Y51459D01*
X665184Y51030D01*
Y49530D01*
X665240Y49101D01*
Y41490D01*
X678320D01*
Y48241D01*
X681574Y51496D01*
X682623Y52862D01*
X683282Y54453D01*
X683506Y56160D01*
Y67090D01*
X687180D01*
Y84170D01*
D02*
G37*
G36*
X226050Y78308D02*
X219940D01*
Y69330D01*
X236131D01*
X235949Y70712D01*
X234925Y73184D01*
X233296Y75306D01*
X231174Y76935D01*
X228702Y77958D01*
X226050Y78308D01*
D02*
G37*
G36*
X217400D02*
X211290D01*
X208638Y77958D01*
X206166Y76935D01*
X204044Y75306D01*
X202415Y73184D01*
X201392Y70712D01*
X201210Y69330D01*
X217400D01*
Y78308D01*
D02*
G37*
G36*
X118100Y77038D02*
X111990D01*
Y68060D01*
X128181D01*
X127999Y69442D01*
X126975Y71914D01*
X125346Y74036D01*
X123224Y75665D01*
X120752Y76688D01*
X118100Y77038D01*
D02*
G37*
G36*
X109450D02*
X103340D01*
X100688Y76688D01*
X98216Y75665D01*
X96094Y74036D01*
X94465Y71914D01*
X93441Y69442D01*
X93259Y68060D01*
X109450D01*
Y77038D01*
D02*
G37*
G36*
X408843Y202324D02*
X401418D01*
X399944Y202031D01*
X398694Y201196D01*
X397859Y199946D01*
X397566Y198472D01*
Y181072D01*
X397525Y180760D01*
X397566Y180448D01*
Y163048D01*
X397575Y163002D01*
Y154890D01*
X397834Y152922D01*
X398594Y151088D01*
X399802Y149512D01*
X406882Y142432D01*
X408457Y141224D01*
X410292Y140464D01*
X412260Y140205D01*
X424233D01*
X426022Y139464D01*
X427990Y139205D01*
X429958Y139464D01*
X431792Y140224D01*
X431853Y140270D01*
X435906D01*
X436539Y139847D01*
X437530Y139650D01*
X443427D01*
X448260Y134817D01*
Y111563D01*
X428187Y91490D01*
X413270D01*
X412279Y91293D01*
X412200Y91240D01*
X390190D01*
Y65372D01*
X389235Y64535D01*
X388777Y64595D01*
X376590D01*
X369270Y71915D01*
Y91240D01*
X346190D01*
Y61160D01*
X358515D01*
X364142Y55533D01*
X363423Y54456D01*
X361865Y55101D01*
X358330Y55567D01*
X355600D01*
Y43180D01*
X371820D01*
X371521Y45445D01*
X370157Y48738D01*
X370072Y48849D01*
X370873Y49892D01*
X371472Y49644D01*
X373440Y49385D01*
X386260D01*
X387274Y48965D01*
X388775Y47464D01*
X387938Y45445D01*
X387473Y41910D01*
X387938Y38375D01*
X389303Y35082D01*
X391473Y32253D01*
X394302Y30083D01*
X397595Y28719D01*
X401130Y28253D01*
X409130D01*
X412665Y28719D01*
X415958Y30083D01*
X418787Y32253D01*
X420957Y35082D01*
X422322Y38375D01*
X422787Y41910D01*
X422322Y45445D01*
X420957Y48738D01*
X418787Y51567D01*
X415958Y53737D01*
X412665Y55101D01*
X409130Y55567D01*
X402183D01*
X397763Y59987D01*
X398249Y61160D01*
X412200D01*
X412279Y61107D01*
X413270Y60910D01*
X416560D01*
X417551Y61107D01*
X418391Y61669D01*
X425317Y68595D01*
X527204D01*
X529172Y68854D01*
X531007Y69614D01*
X531926Y70319D01*
X532666Y70013D01*
X535940Y69582D01*
X539214Y70013D01*
X542264Y71276D01*
X544884Y73286D01*
X546894Y75906D01*
X548157Y78956D01*
X548588Y82230D01*
Y92230D01*
X548157Y95504D01*
X546894Y98554D01*
X544884Y101174D01*
X542264Y103184D01*
X539214Y104447D01*
X535940Y104878D01*
X532666Y104447D01*
X529616Y103184D01*
X526996Y101174D01*
X524986Y98554D01*
X523723Y95504D01*
X523292Y92230D01*
Y83805D01*
X442187D01*
X441701Y84978D01*
X460301Y103579D01*
X460863Y104419D01*
X461060Y105410D01*
Y140970D01*
X460863Y141961D01*
X460301Y142801D01*
X450141Y152961D01*
X449301Y153523D01*
X448310Y153720D01*
X437530D01*
X436539Y153523D01*
X436281Y153350D01*
X432156D01*
X430793Y154396D01*
X428958Y155156D01*
X426990Y155415D01*
X415410D01*
X412785Y158040D01*
Y180710D01*
X412694Y181402D01*
Y198472D01*
X412401Y199946D01*
X411566Y201196D01*
X410316Y202031D01*
X408843Y202324D01*
D02*
G37*
G36*
X236131Y66790D02*
X219940D01*
Y57812D01*
X226050D01*
X228702Y58162D01*
X231174Y59185D01*
X233296Y60814D01*
X234925Y62936D01*
X235949Y65408D01*
X236131Y66790D01*
D02*
G37*
G36*
X217400D02*
X201210D01*
X201392Y65408D01*
X202415Y62936D01*
X204044Y60814D01*
X206166Y59185D01*
X208638Y58162D01*
X211290Y57812D01*
X217400D01*
Y66790D01*
D02*
G37*
G36*
X128181Y65520D02*
X111990D01*
Y56542D01*
X118100D01*
X120752Y56891D01*
X123224Y57915D01*
X125346Y59544D01*
X126975Y61666D01*
X127999Y64138D01*
X128181Y65520D01*
D02*
G37*
G36*
X109450D02*
X93259D01*
X93441Y64138D01*
X94465Y61666D01*
X96094Y59544D01*
X98216Y57915D01*
X100688Y56891D01*
X103340Y56542D01*
X109450D01*
Y65520D01*
D02*
G37*
G36*
X659320Y57570D02*
X654050D01*
Y50800D01*
X659320D01*
Y57570D01*
D02*
G37*
G36*
X651510D02*
X646240D01*
Y50800D01*
X651510D01*
Y57570D01*
D02*
G37*
G36*
X353060Y55567D02*
X350330D01*
X346795Y55101D01*
X343502Y53737D01*
X340673Y51567D01*
X338503Y48738D01*
X337138Y45445D01*
X336840Y43180D01*
X353060D01*
Y55567D01*
D02*
G37*
G36*
X659320Y48260D02*
X654050D01*
Y41490D01*
X659320D01*
Y48260D01*
D02*
G37*
G36*
X651510D02*
X646240D01*
Y41490D01*
X651510D01*
Y48260D01*
D02*
G37*
G36*
X226140Y54348D02*
X211380D01*
X208728Y53998D01*
X206256Y52975D01*
X204134Y51346D01*
X202505Y49224D01*
X201481Y46752D01*
X201132Y44100D01*
X201481Y41448D01*
X202505Y38976D01*
X204134Y36854D01*
X206256Y35225D01*
X208728Y34202D01*
X211380Y33852D01*
X226140D01*
X228792Y34202D01*
X231264Y35225D01*
X233386Y36854D01*
X234259Y37991D01*
X239920D01*
Y34640D01*
X263000D01*
Y51720D01*
X239920D01*
Y49289D01*
X234965D01*
X233386Y51346D01*
X231264Y52975D01*
X228792Y53998D01*
X226140Y54348D01*
D02*
G37*
G36*
X118190Y53078D02*
X103430D01*
X100778Y52729D01*
X98306Y51705D01*
X96184Y50076D01*
X94555Y47954D01*
X93532Y45482D01*
X93182Y42830D01*
X93532Y40178D01*
X94555Y37706D01*
X96184Y35584D01*
X98306Y33955D01*
X100778Y32931D01*
X103430Y32582D01*
X118190D01*
X120842Y32931D01*
X123314Y33955D01*
X125436Y35584D01*
X126578Y37071D01*
X139590D01*
Y34070D01*
X162670D01*
Y51150D01*
X139590D01*
Y48369D01*
X126747D01*
X125436Y50076D01*
X123314Y51705D01*
X120842Y52729D01*
X118190Y53078D01*
D02*
G37*
G36*
X371820Y40640D02*
X355600D01*
Y28253D01*
X358330D01*
X361865Y28719D01*
X365158Y30083D01*
X367987Y32253D01*
X370157Y35082D01*
X371521Y38375D01*
X371820Y40640D01*
D02*
G37*
G36*
X353060D02*
X336840D01*
X337138Y38375D01*
X338503Y35082D01*
X340673Y32253D01*
X343502Y30083D01*
X346795Y28719D01*
X350330Y28253D01*
X353060D01*
Y40640D01*
D02*
G37*
G36*
X735788Y51830D02*
X732333D01*
X728944Y51156D01*
X725752Y49834D01*
X722879Y47914D01*
X720436Y45471D01*
X718516Y42598D01*
X717194Y39406D01*
X716520Y36017D01*
Y32562D01*
X717194Y29174D01*
X718516Y25982D01*
X720436Y23109D01*
X722879Y20666D01*
X725752Y18746D01*
X728944Y17424D01*
X732333Y16750D01*
X735788D01*
X739176Y17424D01*
X742368Y18746D01*
X745241Y20666D01*
X747684Y23109D01*
X749604Y25982D01*
X750926Y29174D01*
X751600Y32562D01*
Y36017D01*
X750926Y39406D01*
X749604Y42598D01*
X747684Y45471D01*
X745241Y47914D01*
X742368Y49834D01*
X739176Y51156D01*
X735788Y51830D01*
D02*
G37*
G36*
X36017D02*
X32562D01*
X29174Y51156D01*
X25982Y49834D01*
X23109Y47914D01*
X20666Y45471D01*
X18746Y42598D01*
X17424Y39406D01*
X16750Y36017D01*
Y32562D01*
X17424Y29174D01*
X18746Y25982D01*
X20666Y23109D01*
X23109Y20666D01*
X25982Y18746D01*
X29174Y17424D01*
X32562Y16750D01*
X36017D01*
X39406Y17424D01*
X42598Y18746D01*
X45471Y20666D01*
X47914Y23109D01*
X49834Y25982D01*
X51156Y29174D01*
X51830Y32562D01*
Y36017D01*
X51156Y39406D01*
X49834Y42598D01*
X47914Y45471D01*
X45471Y47914D01*
X42598Y49834D01*
X39406Y51156D01*
X36017Y51830D01*
D02*
G37*
G36*
X535940Y54878D02*
X532666Y54447D01*
X529616Y53184D01*
X526996Y51174D01*
X524986Y48554D01*
X523723Y45504D01*
X523292Y42230D01*
Y32230D01*
X523723Y28956D01*
X524986Y25906D01*
X526996Y23286D01*
X529616Y21276D01*
X532666Y20013D01*
X535940Y19582D01*
X539214Y20013D01*
X542264Y21276D01*
X542434Y21407D01*
X553266Y10576D01*
X554632Y9527D01*
X556223Y8868D01*
X557930Y8644D01*
X648490D01*
X650197Y8868D01*
X651788Y9527D01*
X653154Y10576D01*
X665069Y22490D01*
X668820D01*
Y28601D01*
X668876Y29030D01*
Y30530D01*
X668820Y30959D01*
Y38570D01*
X655740D01*
Y31819D01*
X645758Y21836D01*
X560662D01*
X548588Y33911D01*
Y42230D01*
X548157Y45504D01*
X546894Y48554D01*
X544884Y51174D01*
X542264Y53184D01*
X539214Y54447D01*
X535940Y54878D01*
D02*
G37*
%LPD*%
G36*
X226104Y672235D02*
X228067Y670529D01*
X228998Y669823D01*
X229896Y669215D01*
X230760Y668705D01*
X231591Y668292D01*
X232388Y667977D01*
X233152Y667760D01*
X233882Y667641D01*
X224895Y656472D01*
X225291Y657144D01*
X225478Y657914D01*
X225455Y658781D01*
X225222Y659745D01*
X224779Y660807D01*
X224126Y661967D01*
X223264Y663223D01*
X222191Y664577D01*
X220908Y666029D01*
X219415Y667578D01*
X225072Y673234D01*
X226104Y672235D01*
D02*
G37*
G36*
X199072Y666454D02*
X198205Y665323D01*
X197190Y662871D01*
X196843Y660240D01*
Y645320D01*
X197190Y642689D01*
X198205Y640237D01*
X199557Y638475D01*
X199078Y637205D01*
X189542D01*
X189063Y638475D01*
X190415Y640237D01*
X191430Y642689D01*
X191777Y645320D01*
Y660240D01*
X191430Y662871D01*
X190415Y665323D01*
X189548Y666454D01*
X190174Y667724D01*
X198446D01*
X199072Y666454D01*
D02*
G37*
G36*
X173672D02*
X172805Y665323D01*
X171789Y662871D01*
X171443Y660240D01*
Y645320D01*
X171789Y642689D01*
X172805Y640237D01*
X174157Y638475D01*
X173678Y637205D01*
X164142D01*
X163663Y638475D01*
X165015Y640237D01*
X166031Y642689D01*
X166377Y645320D01*
Y660240D01*
X166031Y662871D01*
X165015Y665323D01*
X164148Y666454D01*
X164774Y667724D01*
X173046D01*
X173672Y666454D01*
D02*
G37*
G36*
X120643Y658860D02*
Y645908D01*
X26026Y551292D01*
X24756Y551818D01*
Y564770D01*
X119373Y659386D01*
X120643Y658860D01*
D02*
G37*
G36*
X98472Y407458D02*
X97950Y405511D01*
Y402209D01*
X98805Y399020D01*
X100456Y396160D01*
X102790Y393825D01*
X105484Y392270D01*
X105492Y392171D01*
X105029Y391000D01*
X101840Y390145D01*
X99488Y388787D01*
X88565Y399710D01*
Y415569D01*
X89835Y416095D01*
X98472Y407458D01*
D02*
G37*
G36*
X123205Y398263D02*
Y347732D01*
X92621Y317148D01*
X90949Y317368D01*
X87675Y316937D01*
X84625Y315674D01*
X82005Y313664D01*
X79995Y311044D01*
X78936Y308487D01*
X77561D01*
X76502Y311044D01*
X74492Y313664D01*
X71873Y315674D01*
X68822Y316937D01*
X65549Y317368D01*
X63350Y317079D01*
X50545Y329884D01*
Y357410D01*
X51718Y357896D01*
X63688Y345927D01*
X63660Y345821D01*
Y342519D01*
X64515Y339330D01*
X66165Y336470D01*
X68500Y334136D01*
X71360Y332485D01*
X74549Y331630D01*
X77851D01*
X81040Y332485D01*
X83900Y334136D01*
X86235Y336470D01*
X87885Y339330D01*
X88740Y342519D01*
Y345821D01*
X88101Y348207D01*
X88187Y348457D01*
X89058Y349410D01*
X91821D01*
X95010Y350265D01*
X97870Y351916D01*
X100204Y354250D01*
X101855Y357110D01*
X102710Y360299D01*
Y363601D01*
X102190Y365542D01*
X103088Y366440D01*
X105029Y365920D01*
X108331D01*
X111520Y366775D01*
X114380Y368425D01*
X116714Y370760D01*
X118365Y373620D01*
X119220Y376809D01*
Y380111D01*
X118365Y383300D01*
X116714Y386160D01*
X114380Y388494D01*
X111686Y390050D01*
X111678Y390149D01*
X112141Y391320D01*
X115330Y392175D01*
X118190Y393825D01*
X120525Y396160D01*
X121935Y398603D01*
X123205Y398263D01*
D02*
G37*
G36*
X84114Y375105D02*
X85596Y373850D01*
X86303Y373341D01*
X86987Y372911D01*
X87649Y372560D01*
X88288Y372289D01*
X88905Y372097D01*
X89499Y371983D01*
X90070Y371950D01*
X80170Y362050D01*
X80136Y362621D01*
X80023Y363215D01*
X79831Y363832D01*
X79560Y364471D01*
X79209Y365133D01*
X78779Y365817D01*
X78270Y366524D01*
X77682Y367254D01*
X76268Y368781D01*
X83339Y375852D01*
X84114Y375105D01*
D02*
G37*
G36*
X169524Y276565D02*
Y271482D01*
X94373Y196332D01*
X91440Y196718D01*
X89566Y196472D01*
X88973Y197674D01*
X168350Y277051D01*
X169524Y276565D01*
D02*
G37*
G36*
X158983Y291425D02*
Y286342D01*
X68973Y196332D01*
X66040Y196718D01*
X64166Y196472D01*
X63573Y197674D01*
X157810Y291911D01*
X158983Y291425D01*
D02*
G37*
G36*
X180063Y261705D02*
Y251622D01*
X123334Y194893D01*
X123164Y195024D01*
X120114Y196287D01*
X116840Y196718D01*
X114966Y196472D01*
X114373Y197674D01*
X178890Y262191D01*
X180063Y261705D01*
D02*
G37*
G36*
X236385Y164224D02*
X235765Y164673D01*
X235044Y164908D01*
X234222Y164930D01*
X233299Y164738D01*
X232275Y164332D01*
X231150Y163713D01*
X229924Y162881D01*
X228597Y161835D01*
X227169Y160576D01*
X225640Y159103D01*
X219983Y164760D01*
X221442Y166275D01*
X223719Y169002D01*
X224537Y170214D01*
X225142Y171325D01*
X225533Y172335D01*
X225711Y173245D01*
X225675Y174053D01*
X225426Y174760D01*
X224963Y175366D01*
X236385Y164224D01*
D02*
G37*
G36*
X458470Y140970D02*
Y105410D01*
X416560Y63500D01*
X413270D01*
Y69988D01*
X413177Y69950D01*
X412274Y69400D01*
X411572Y68750D01*
X411070Y68000D01*
X410769Y67150D01*
X410669Y66200D01*
Y74930D01*
X401730D01*
Y77470D01*
X410669D01*
Y86200D01*
X410769Y85250D01*
X411070Y84400D01*
X411572Y83650D01*
X412274Y83000D01*
X413177Y82450D01*
X413270Y82412D01*
Y88900D01*
X429260D01*
X450850Y110490D01*
Y135890D01*
X444500Y142240D01*
X437530D01*
Y145540D01*
X427990D01*
Y148080D01*
X437530D01*
Y151130D01*
X448310D01*
X458470Y140970D01*
D02*
G37*
G36*
X226970Y48835D02*
X227150Y48374D01*
X227449Y47968D01*
X227869Y47615D01*
X228410Y47317D01*
X229069Y47073D01*
X229849Y46884D01*
X230749Y46748D01*
X231770Y46667D01*
X232910Y46640D01*
Y40640D01*
X231770Y40618D01*
X229849Y40439D01*
X229069Y40283D01*
X228410Y40083D01*
X227869Y39837D01*
X227449Y39548D01*
X227150Y39213D01*
X226970Y38834D01*
X226910Y38410D01*
Y49349D01*
X226970Y48835D01*
D02*
G37*
G36*
X119019Y47631D02*
X119199Y47230D01*
X119500Y46876D01*
X119920Y46569D01*
X120459Y46310D01*
X121119Y46097D01*
X121899Y45932D01*
X122800Y45814D01*
X123820Y45744D01*
X124959Y45720D01*
Y39720D01*
X123820Y39694D01*
X122800Y39617D01*
X121899Y39488D01*
X121119Y39307D01*
X120459Y39075D01*
X119920Y38791D01*
X119500Y38456D01*
X119199Y38069D01*
X119019Y37631D01*
X118960Y37141D01*
Y48080D01*
X119019Y47631D01*
D02*
G37*
%LPC*%
G36*
X563260Y588200D02*
X554990D01*
Y582930D01*
X563260D01*
Y588200D01*
D02*
G37*
G36*
X552450D02*
X544180D01*
Y582930D01*
X552450D01*
Y588200D01*
D02*
G37*
G36*
Y580390D02*
X544180D01*
Y575120D01*
X552450D01*
Y580390D01*
D02*
G37*
G36*
X486410Y518007D02*
X483779Y517660D01*
X481326Y516645D01*
X479221Y515029D01*
X477605Y512924D01*
X476590Y510471D01*
X476243Y507840D01*
Y492920D01*
X476590Y490289D01*
X477605Y487836D01*
X479221Y485731D01*
X481326Y484115D01*
X483779Y483100D01*
X486410Y482753D01*
X489041Y483100D01*
X491493Y484115D01*
X493599Y485731D01*
X495215Y487836D01*
X496231Y490289D01*
X496577Y492920D01*
Y507840D01*
X496231Y510471D01*
X495215Y512924D01*
X493599Y515029D01*
X491493Y516645D01*
X489041Y517660D01*
X486410Y518007D01*
D02*
G37*
G36*
X461010D02*
X458379Y517660D01*
X455927Y516645D01*
X453821Y515029D01*
X452205Y512924D01*
X451189Y510471D01*
X450843Y507840D01*
Y492920D01*
X451189Y490289D01*
X452205Y487836D01*
X453821Y485731D01*
X455927Y484115D01*
X458379Y483100D01*
X461010Y482753D01*
X463641Y483100D01*
X466093Y484115D01*
X468199Y485731D01*
X469815Y487836D01*
X470830Y490289D01*
X471177Y492920D01*
Y507840D01*
X470830Y510471D01*
X469815Y512924D01*
X468199Y515029D01*
X466093Y516645D01*
X463641Y517660D01*
X461010Y518007D01*
D02*
G37*
G36*
X402810Y358250D02*
X395540D01*
Y347980D01*
X402810D01*
Y358250D01*
D02*
G37*
G36*
X393000D02*
X385730D01*
Y347980D01*
X393000D01*
Y358250D01*
D02*
G37*
G36*
X402810Y345440D02*
X395540D01*
Y335170D01*
X402810D01*
Y345440D01*
D02*
G37*
G36*
X393000D02*
X385730D01*
Y335170D01*
X393000D01*
Y345440D01*
D02*
G37*
G36*
X588010Y518007D02*
X585379Y517660D01*
X582926Y516645D01*
X580821Y515029D01*
X579205Y512924D01*
X578190Y510471D01*
X577843Y507840D01*
Y492920D01*
X578190Y490289D01*
X579205Y487836D01*
X580821Y485731D01*
X581414Y485276D01*
Y325865D01*
X575144Y319596D01*
X572770Y319908D01*
X569552Y319485D01*
X569366Y319621D01*
X568588Y320476D01*
X568982Y321425D01*
X569206Y323133D01*
Y485276D01*
X569799Y485731D01*
X571415Y487836D01*
X572430Y490289D01*
X572777Y492920D01*
Y507840D01*
X572430Y510471D01*
X571415Y512924D01*
X569799Y515029D01*
X567693Y516645D01*
X565241Y517660D01*
X562610Y518007D01*
X559979Y517660D01*
X557527Y516645D01*
X555421Y515029D01*
X553805Y512924D01*
X552789Y510471D01*
X552443Y507840D01*
Y492920D01*
X552789Y490289D01*
X553805Y487836D01*
X555421Y485731D01*
X556014Y485276D01*
Y325865D01*
X549744Y319596D01*
X547370Y319908D01*
X544152Y319485D01*
X543966Y319621D01*
X543188Y320476D01*
X543582Y321425D01*
X543806Y323133D01*
Y485276D01*
X544399Y485731D01*
X546015Y487836D01*
X547030Y490289D01*
X547377Y492920D01*
Y507840D01*
X547030Y510471D01*
X546015Y512924D01*
X544399Y515029D01*
X542294Y516645D01*
X539841Y517660D01*
X537210Y518007D01*
X534579Y517660D01*
X532127Y516645D01*
X530021Y515029D01*
X528405Y512924D01*
X527389Y510471D01*
X527043Y507840D01*
Y492920D01*
X527389Y490289D01*
X528405Y487836D01*
X530021Y485731D01*
X530614Y485276D01*
Y325865D01*
X524344Y319596D01*
X521970Y319908D01*
X518752Y319485D01*
X518566Y319621D01*
X517788Y320476D01*
X518182Y321425D01*
X518406Y323133D01*
Y485276D01*
X518999Y485731D01*
X520615Y487836D01*
X521631Y490289D01*
X521977Y492920D01*
Y507840D01*
X521631Y510471D01*
X520615Y512924D01*
X518999Y515029D01*
X516894Y516645D01*
X514441Y517660D01*
X511810Y518007D01*
X509179Y517660D01*
X506726Y516645D01*
X504621Y515029D01*
X503005Y512924D01*
X501990Y510471D01*
X501643Y507840D01*
Y492920D01*
X501990Y490289D01*
X503005Y487836D01*
X504621Y485731D01*
X505214Y485276D01*
Y325865D01*
X498944Y319596D01*
X496570Y319908D01*
X493296Y319477D01*
X490246Y318214D01*
X487626Y316204D01*
X485616Y313584D01*
X484353Y310534D01*
X483922Y307260D01*
Y297260D01*
X484353Y293986D01*
X485616Y290936D01*
X487626Y288316D01*
X490246Y286306D01*
X493296Y285043D01*
X496570Y284612D01*
X499844Y285043D01*
X502894Y286306D01*
X505514Y288316D01*
X507524Y290936D01*
X508583Y293493D01*
X509957D01*
X511016Y290936D01*
X513026Y288316D01*
X515646Y286306D01*
X518696Y285043D01*
X521970Y284612D01*
X525244Y285043D01*
X528294Y286306D01*
X530914Y288316D01*
X532924Y290936D01*
X533983Y293493D01*
X535357D01*
X536416Y290936D01*
X538426Y288316D01*
X541046Y286306D01*
X544096Y285043D01*
X547370Y284612D01*
X550644Y285043D01*
X553694Y286306D01*
X556314Y288316D01*
X558324Y290936D01*
X559383Y293493D01*
X560757D01*
X561816Y290936D01*
X563826Y288316D01*
X566446Y286306D01*
X569496Y285043D01*
X572770Y284612D01*
X576044Y285043D01*
X579094Y286306D01*
X581714Y288316D01*
X583724Y290936D01*
X584987Y293986D01*
X585418Y297260D01*
Y307260D01*
X584987Y310534D01*
X584915Y310709D01*
X592674Y318468D01*
X593723Y319834D01*
X594382Y321425D01*
X594606Y323133D01*
Y485276D01*
X595199Y485731D01*
X596815Y487836D01*
X597831Y490289D01*
X598177Y492920D01*
Y507840D01*
X597831Y510471D01*
X596815Y512924D01*
X595199Y515029D01*
X593093Y516645D01*
X590641Y517660D01*
X588010Y518007D01*
D02*
G37*
G36*
X574819Y201631D02*
Y185420D01*
X586197D01*
Y189150D01*
X585766Y192424D01*
X584502Y195474D01*
X582492Y198094D01*
X579873Y200104D01*
X576822Y201367D01*
X574819Y201631D01*
D02*
G37*
G36*
X586197Y182880D02*
X574819D01*
Y166669D01*
X576822Y166933D01*
X579873Y168196D01*
X582492Y170206D01*
X584502Y172826D01*
X585766Y175876D01*
X586197Y179150D01*
Y182880D01*
D02*
G37*
G36*
X693950Y588390D02*
X681780D01*
Y579120D01*
X693950D01*
Y588390D01*
D02*
G37*
G36*
X695220Y577850D02*
D01*
D01*
D01*
D02*
G37*
G36*
X708660Y576580D02*
X696490D01*
Y567310D01*
X708660D01*
Y576580D01*
D02*
G37*
%LPD*%
D14*
X331540Y389890D02*
D03*
X384740D02*
D03*
X332810Y431800D02*
D03*
X386010D02*
D03*
D15*
X218440Y43880D02*
D03*
Y67880D02*
D03*
X110490Y42610D02*
D03*
Y66610D02*
D03*
D16*
X384810Y145350D02*
D03*
Y121350D02*
D03*
X346710Y121350D02*
D03*
Y145350D02*
D03*
X582930Y566550D02*
D03*
Y590550D02*
D03*
X643890Y99630D02*
D03*
Y75630D02*
D03*
X675640Y75630D02*
D03*
Y99630D02*
D03*
X151130Y42610D02*
D03*
Y66610D02*
D03*
X251460Y43180D02*
D03*
Y67180D02*
D03*
D17*
X354330Y180760D02*
D03*
X379730D02*
D03*
X405130D02*
D03*
D18*
X379730Y289560D02*
D03*
D19*
X427990Y146810D02*
D03*
Y130810D02*
D03*
X207010Y549910D02*
D03*
Y533910D02*
D03*
X382270Y552070D02*
D03*
Y568070D02*
D03*
X553720Y565660D02*
D03*
Y581660D02*
D03*
D20*
X370270Y346710D02*
D03*
X394270D02*
D03*
D21*
X401730Y76200D02*
D03*
X357730D02*
D03*
D22*
X341510Y558990D02*
D03*
D23*
X251510D02*
D03*
D24*
X695220Y577850D02*
D03*
X617220D02*
D03*
D25*
X671780Y49530D02*
D03*
X652780D02*
D03*
X662280Y30530D02*
D03*
D26*
X647700Y184150D02*
Y302260D01*
X627380Y132080D02*
X647700Y152400D01*
Y184150D01*
X537942Y132080D02*
X627380D01*
X497349Y172674D02*
Y184150D01*
Y172674D02*
X537942Y132080D01*
X447413Y262517D02*
X497349Y212581D01*
Y184150D02*
Y212581D01*
X379730Y289560D02*
X406773Y262517D01*
X447413D01*
X359410Y357570D02*
X370270Y346710D01*
X359410Y357570D02*
Y500380D01*
X370270Y299020D02*
Y346710D01*
D27*
X372110Y533400D02*
X404352D01*
X410210Y539258D01*
Y619760D01*
X359410Y520700D02*
X372110Y533400D01*
X359410Y500380D02*
Y520700D01*
X410210Y619760D02*
X427990Y601980D01*
X341510Y558990D02*
X355260D01*
X363340Y550910D01*
X379540D01*
X379730Y166370D02*
Y180760D01*
Y166370D02*
X384810Y161290D01*
Y145350D02*
Y161290D01*
X384740Y397240D02*
X389240Y401740D01*
X399200D02*
X412809Y415349D01*
X389240Y401740D02*
X399200D01*
X384740Y389890D02*
Y397240D01*
X412809Y415349D02*
Y470119D01*
X435610Y492920D01*
Y500380D01*
X410210Y492920D02*
Y500380D01*
X386010Y468720D02*
X410210Y492920D01*
X386010Y431800D02*
Y468720D01*
X93980Y422705D02*
X110490Y406195D01*
X93980Y422705D02*
Y514350D01*
X110490Y403860D02*
Y406195D01*
X55880Y364490D02*
X76200Y344170D01*
X55880Y364490D02*
Y530769D01*
X68420Y383700D02*
Y525574D01*
Y383700D02*
X86866Y365255D01*
X80960Y396560D02*
X100363Y377157D01*
X80960Y396560D02*
Y520380D01*
X93980Y514350D02*
X170180Y590550D01*
X302257D01*
X359410Y646695D02*
Y652780D01*
X355495Y642780D02*
X359410Y646695D01*
X354487Y642780D02*
X355495D01*
X302257Y590550D02*
X354487Y642780D01*
X165100Y604520D02*
X295910D01*
X331470Y640080D01*
X284320Y617060D02*
X306070Y638810D01*
X159906Y617060D02*
X284320D01*
X306070Y641405D02*
X308610Y643945D01*
X306070Y638810D02*
Y641405D01*
X308610Y643945D02*
Y652780D01*
X80960Y520380D02*
X165100Y604520D01*
X68420Y525574D02*
X159906Y617060D01*
X334010Y643945D02*
Y652780D01*
X331470Y641405D02*
X334010Y643945D01*
X331470Y640080D02*
Y641405D01*
X208010Y549910D02*
X210232Y552132D01*
Y553132D01*
X207010Y549910D02*
X208010D01*
X210232Y553132D02*
X216090Y558990D01*
X251510D01*
X271780Y558800D02*
X283210Y547370D01*
Y500380D02*
Y547370D01*
X308610Y500380D02*
Y545590D01*
X320550Y557530D01*
X263416Y629600D02*
X278164Y644348D01*
X154712Y629600D02*
X263416D01*
X278164Y644348D02*
X280863D01*
X283210Y646695D01*
Y652780D01*
X42940Y535563D02*
X149517Y642140D01*
X151655D01*
X156210Y646695D01*
X55880Y530769D02*
X154712Y629600D01*
X42940Y326734D02*
Y535563D01*
X156210Y646695D02*
Y652780D01*
X65549Y299720D02*
Y304125D01*
X42940Y326734D02*
X65549Y304125D01*
X535940Y84936D02*
Y87230D01*
X401730Y76200D02*
X527204D01*
X535940Y84936D01*
X643890Y75630D02*
X643890Y75630D01*
X675640D01*
X675640Y75630D01*
X130810Y645320D02*
Y652780D01*
X30400Y317175D02*
Y544910D01*
Y317175D02*
X40149Y307426D01*
Y299720D02*
Y307426D01*
X30400Y544910D02*
X130810Y645320D01*
Y344581D02*
Y500380D01*
X143510Y484294D02*
X151164Y491948D01*
X156210Y494295D02*
Y500380D01*
X118262Y313842D02*
X143510Y339090D01*
Y484294D01*
X90949Y304720D02*
X130810Y344581D01*
X151164Y491948D02*
X153863D01*
X156210Y494295D01*
X346710Y145350D02*
X349710D01*
X350710Y146350D02*
Y149350D01*
X349710Y145350D02*
X350710Y146350D01*
X354330Y152970D02*
Y180760D01*
X350710Y149350D02*
X354330Y152970D01*
X347710Y144350D02*
X358810D01*
X346710Y145350D02*
X347710Y144350D01*
X358810D02*
X381810Y121350D01*
X384810D01*
X405180Y154890D02*
X412260Y147810D01*
X405130Y180760D02*
X405180Y180710D01*
Y154890D02*
Y180710D01*
X412260Y147810D02*
X426990D01*
X427990Y146810D01*
X357730Y72700D02*
X373440Y56990D01*
X388777D01*
X397350Y48937D02*
Y49644D01*
Y48937D02*
X404377Y41910D01*
X388777Y56990D02*
X389607Y56160D01*
X390834D01*
X404377Y41910D02*
X405130D01*
X390834Y56160D02*
X397350Y49644D01*
X357730Y72700D02*
Y76200D01*
X118262Y301633D02*
Y313842D01*
X116349Y299720D02*
X118262Y301633D01*
X90949Y299720D02*
Y304720D01*
X410210Y619760D02*
Y652780D01*
X427990Y601980D02*
X568960D01*
X578930Y592010D01*
Y591550D02*
X579930Y590550D01*
X578930Y591550D02*
Y592010D01*
X579930Y590550D02*
X582930D01*
D28*
X633224Y692150D02*
X757520Y567854D01*
X461010Y660240D02*
X492920Y692150D01*
X633224D01*
X707902Y137672D02*
X757520Y187290D01*
Y567854D01*
X664722Y137672D02*
X707902D01*
X643890Y116840D02*
X664722Y137672D01*
X643890Y99630D02*
Y116840D01*
X461010Y652780D02*
Y660240D01*
X561830Y620700D02*
X607724D01*
X687960Y540464D01*
X537210Y645320D02*
Y652780D01*
X562610Y643404D02*
X566150Y639864D01*
X537210Y645320D02*
X561830Y620700D01*
X566150Y637810D02*
X572720Y631240D01*
X612090D02*
X698500Y544830D01*
X572720Y631240D02*
X612090D01*
X562610Y643404D02*
Y652780D01*
X566150Y637810D02*
Y639864D01*
X572770Y307893D02*
X588010Y323133D01*
Y500380D01*
X572770Y302260D02*
Y307893D01*
X675640Y75630D02*
X676910Y74360D01*
Y56160D02*
Y74360D01*
X671780Y49530D02*
Y51030D01*
X676910Y56160D01*
X541483Y29934D02*
X543236D01*
X557930Y15240D01*
X535940Y35477D02*
Y37230D01*
Y35477D02*
X541483Y29934D01*
X557930Y15240D02*
X648490D01*
X662280Y29030D02*
Y30530D01*
X648490Y15240D02*
X662280Y29030D01*
X496570Y307893D02*
X511810Y323133D01*
Y500380D01*
X537210Y323133D02*
Y500380D01*
X521970Y307893D02*
X537210Y323133D01*
X698500Y302260D02*
Y544830D01*
X673100Y308653D02*
X687960Y323513D01*
Y540464D01*
X673100Y302260D02*
Y308653D01*
X562610Y323133D02*
Y500380D01*
X547370Y307893D02*
X562610Y323133D01*
X547370Y302260D02*
Y307893D01*
X521970Y302260D02*
Y307893D01*
X496570Y302260D02*
Y307893D01*
X7620Y156151D02*
X24451Y139320D01*
X18160Y567502D02*
X124978Y674320D01*
X7620Y571868D02*
X120612Y684860D01*
X18160Y160516D02*
X28816Y149860D01*
X7620Y156151D02*
Y571868D01*
X18160Y160516D02*
Y567502D01*
X124978Y674320D02*
X218330D01*
X232410Y660240D01*
X233190Y684860D02*
X257810Y660240D01*
Y652780D02*
Y660240D01*
X120612Y684860D02*
X233190D01*
X225600Y139320D02*
X260350Y174070D01*
X24451Y139320D02*
X225600D01*
X260350Y174070D02*
Y179070D01*
X232410Y652780D02*
Y660240D01*
X28816Y149860D02*
X210740D01*
X234950Y174070D01*
Y179070D01*
X186670Y333723D02*
X257810Y404863D01*
Y500380D01*
X213754Y489380D02*
X218440Y484694D01*
Y395304D02*
Y484694D01*
X207010Y494836D02*
X212466Y489380D01*
X165590Y342454D02*
X218440Y395304D01*
X207010Y494836D02*
Y500380D01*
X212466Y489380D02*
X213754D01*
X232410Y394368D02*
Y500380D01*
X155050Y346820D02*
X181610Y373380D01*
X155050Y334310D02*
Y346820D01*
X176130Y315947D02*
Y338088D01*
X186670Y311581D02*
Y333723D01*
X165590Y320313D02*
Y342454D01*
X181610Y373380D02*
Y500380D01*
X176130Y338088D02*
X232410Y394368D01*
X116840Y179070D02*
X186660Y248890D01*
X40640Y179070D02*
Y184070D01*
X66040D02*
X165580Y283610D01*
X186660Y311571D02*
X186670Y311581D01*
X91440Y184070D02*
X176120Y268750D01*
Y315937D02*
X176130Y315947D01*
X155040Y298470D02*
Y334300D01*
X165580Y320303D02*
X165590Y320313D01*
X176120Y268750D02*
Y315937D01*
X40640Y184070D02*
X155040Y298470D01*
X186660Y248890D02*
Y311571D01*
X155040Y334300D02*
X155050Y334310D01*
X165580Y283610D02*
Y320303D01*
X66040Y179070D02*
Y184070D01*
X91440Y179070D02*
Y184070D01*
D29*
X629272Y682610D02*
X747980Y563902D01*
X508780Y682610D02*
X629272D01*
X524890Y673320D02*
X626485D01*
X739440Y560365D01*
X511810Y660240D02*
X524890Y673320D01*
X486410Y660240D02*
X508780Y682610D01*
X511810Y652780D02*
Y660240D01*
X701039Y201929D02*
X747980Y248870D01*
X739440Y252407D02*
Y560365D01*
X747980Y248870D02*
Y563902D01*
X673100Y186067D02*
X739440Y252407D01*
X317825Y428315D02*
X329325D01*
X301290Y411780D02*
X317825Y428315D01*
X329325D02*
X332810Y431800D01*
X301290Y167633D02*
Y411780D01*
X309830Y164096D02*
Y368180D01*
X331540Y389890D01*
X308610Y121330D02*
Y162876D01*
X309830Y164096D01*
X223827Y90170D02*
X301290Y167633D01*
X254460Y67180D02*
X308610Y121330D01*
X151130Y66610D02*
X174690Y90170D01*
X223827D01*
X251460Y67180D02*
X254460D01*
X218760Y44100D02*
X219220Y43640D01*
X251000D02*
X251460Y43180D01*
X219220Y43640D02*
X251000D01*
X110920Y42720D02*
X151020D01*
X110810Y42830D02*
X110920Y42720D01*
X151020D02*
X151130Y42610D01*
X701039Y186689D02*
Y201929D01*
X673100Y184150D02*
Y186067D01*
X698500Y184150D02*
X701039Y186689D01*
X486410Y652780D02*
Y660240D01*
D30*
X40149Y299720D02*
D03*
X65549D02*
D03*
X90949D02*
D03*
X116349D02*
D03*
X40640Y179070D02*
D03*
X66040D02*
D03*
X91440D02*
D03*
X116840D02*
D03*
X279400Y299720D02*
D03*
X254000D02*
D03*
X228600D02*
D03*
X203200D02*
D03*
X285750Y179070D02*
D03*
X260350D02*
D03*
X234950D02*
D03*
X209550D02*
D03*
X572770Y302260D02*
D03*
X547370D02*
D03*
X521970D02*
D03*
X496570D02*
D03*
X497349Y184150D02*
D03*
X522749D02*
D03*
X548149D02*
D03*
X573549D02*
D03*
X647700D02*
D03*
X673100D02*
D03*
X698500D02*
D03*
X723900D02*
D03*
X647700Y302260D02*
D03*
X673100D02*
D03*
X698500D02*
D03*
X723900D02*
D03*
D31*
X535940Y87230D02*
D03*
Y37230D02*
D03*
D32*
X218670Y68060D02*
D03*
X218760Y44100D02*
D03*
X110720Y66790D02*
D03*
X110810Y42830D02*
D03*
D33*
X405130Y41910D02*
D03*
X354330D02*
D03*
D34*
X613410Y500380D02*
D03*
D35*
X588010D02*
D03*
X562610D02*
D03*
X537210D02*
D03*
X511810D02*
D03*
X486410D02*
D03*
X461010D02*
D03*
X435610D02*
D03*
X410210D02*
D03*
X384810D02*
D03*
X359410D02*
D03*
X334010D02*
D03*
X308610D02*
D03*
X283210D02*
D03*
X257810D02*
D03*
X232410D02*
D03*
X207010D02*
D03*
X181610D02*
D03*
X156210D02*
D03*
X130810D02*
D03*
Y652780D02*
D03*
X156210D02*
D03*
X181610D02*
D03*
X207010D02*
D03*
X232410D02*
D03*
X257810D02*
D03*
X283210D02*
D03*
X308610D02*
D03*
X334010D02*
D03*
X359410D02*
D03*
X384810D02*
D03*
X410210D02*
D03*
X435610D02*
D03*
X461010D02*
D03*
X486410D02*
D03*
X511810D02*
D03*
X537210D02*
D03*
X562610D02*
D03*
X588010D02*
D03*
X613410D02*
D03*
D36*
X271780Y558800D02*
D03*
X321820D02*
D03*
D37*
X354330Y608330D02*
D03*
X449580Y377190D02*
D03*
X582930Y238760D02*
D03*
X472440Y41910D02*
D03*
X297180Y44450D02*
D03*
X736600Y96520D02*
D03*
X35560Y90170D02*
D03*
X261620Y355600D02*
D03*
X643890Y431800D02*
D03*
X718820Y433070D02*
D03*
X737870Y208280D02*
D03*
D38*
X110490Y403860D02*
D03*
X106680Y378460D02*
D03*
X90170Y361950D02*
D03*
X76200Y344170D02*
D03*
D39*
X734060Y34290D02*
D03*
X34290D02*
D03*
X33020Y665480D02*
D03*
X735330D02*
D03*
M02*
