G04*
G04 #@! TF.GenerationSoftware,Altium Limited,Altium Designer,22.9.1 (49)*
G04*
G04 Layer_Color=128*
%FSLAX44Y44*%
%MOMM*%
G71*
G04*
G04 #@! TF.SameCoordinates,248AC2EE-2185-46B6-B0B3-A36349E764D8*
G04*
G04*
G04 #@! TF.FilePolarity,Positive*
G04*
G01*
G75*
%ADD41C,0.0508*%
D41*
X35149Y299720D02*
X45149D01*
X40149Y294720D02*
Y304720D01*
X60549Y299720D02*
X70549D01*
X65549Y294720D02*
Y304720D01*
X85949Y299720D02*
X95949D01*
X90949Y294720D02*
Y304720D01*
X111349Y299720D02*
X121349D01*
X116349Y294720D02*
Y304720D01*
X531940Y87230D02*
X539940D01*
X535940Y83230D02*
Y91230D01*
X531940Y37230D02*
X539940D01*
X535940Y33230D02*
Y41230D01*
X35640Y179070D02*
X45640D01*
X40640Y174070D02*
Y184070D01*
X61040Y179070D02*
X71040D01*
X66040Y174070D02*
Y184070D01*
X86440Y179070D02*
X96440D01*
X91440Y174070D02*
Y184070D01*
X111840Y179070D02*
X121840D01*
X116840Y174070D02*
Y184070D01*
X274400Y299720D02*
X284400D01*
X279400Y294720D02*
Y304720D01*
X249000Y299720D02*
X259000D01*
X254000Y294720D02*
Y304720D01*
X223600Y299720D02*
X233600D01*
X228600Y294720D02*
Y304720D01*
X198200Y299720D02*
X208200D01*
X203200Y294720D02*
Y304720D01*
X280750Y179070D02*
X290750D01*
X285750Y174070D02*
Y184070D01*
X255350Y179070D02*
X265350D01*
X260350Y174070D02*
Y184070D01*
X229950Y179070D02*
X239950D01*
X234950Y174070D02*
Y184070D01*
X204550Y179070D02*
X214550D01*
X209550Y174070D02*
Y184070D01*
X567770Y302260D02*
X577770D01*
X572770Y297260D02*
Y307260D01*
X542370Y302260D02*
X552370D01*
X547370Y297260D02*
Y307260D01*
X516970Y302260D02*
X526970D01*
X521970Y297260D02*
Y307260D01*
X491570Y302260D02*
X501570D01*
X496570Y297260D02*
Y307260D01*
X492349Y184150D02*
X502349D01*
X497349Y179150D02*
Y189150D01*
X517749Y184150D02*
X527749D01*
X522749Y179150D02*
Y189150D01*
X543149Y184150D02*
X553149D01*
X548149Y179150D02*
Y189150D01*
X568549Y184150D02*
X578549D01*
X573549Y179150D02*
Y189150D01*
X642700Y184150D02*
X652700D01*
X647700Y179150D02*
Y189150D01*
X668100Y184150D02*
X678100D01*
X673100Y179150D02*
Y189150D01*
X693500Y184150D02*
X703500D01*
X698500Y179150D02*
Y189150D01*
X718900Y184150D02*
X728900D01*
X723900Y179150D02*
Y189150D01*
X642700Y302260D02*
X652700D01*
X647700Y297260D02*
Y307260D01*
X668100Y302260D02*
X678100D01*
X673100Y297260D02*
Y307260D01*
X693500Y302260D02*
X703500D01*
X698500Y297260D02*
Y307260D01*
X718900Y302260D02*
X728900D01*
X723900Y297260D02*
Y307260D01*
X213670Y68060D02*
X223670D01*
X218670Y63060D02*
Y73060D01*
X213760Y44100D02*
X223760D01*
X218760Y39100D02*
Y49100D01*
X105720Y66790D02*
X115720D01*
X110720Y61790D02*
Y71790D01*
X105810Y42830D02*
X115810D01*
X110810Y37830D02*
Y47830D01*
X399130Y41910D02*
X411130D01*
X405130Y35910D02*
Y47910D01*
X348330Y41910D02*
X360330D01*
X354330Y35910D02*
Y47910D01*
X608410Y500380D02*
X618410D01*
X613410Y495380D02*
Y505380D01*
X583010Y500380D02*
X593010D01*
X588010Y495380D02*
Y505380D01*
X557610Y500380D02*
X567610D01*
X562610Y495380D02*
Y505380D01*
X532210Y500380D02*
X542210D01*
X537210Y495380D02*
Y505380D01*
X506810Y500380D02*
X516810D01*
X511810Y495380D02*
Y505380D01*
X481410Y500380D02*
X491410D01*
X486410Y495380D02*
Y505380D01*
X456010Y500380D02*
X466010D01*
X461010Y495380D02*
Y505380D01*
X430610Y500380D02*
X440610D01*
X435610Y495380D02*
Y505380D01*
X405210Y500380D02*
X415210D01*
X410210Y495380D02*
Y505380D01*
X379810Y500380D02*
X389810D01*
X384810Y495380D02*
Y505380D01*
X354410Y500380D02*
X364410D01*
X359410Y495380D02*
Y505380D01*
X329010Y500380D02*
X339010D01*
X334010Y495380D02*
Y505380D01*
X303610Y500380D02*
X313610D01*
X308610Y495380D02*
Y505380D01*
X278210Y500380D02*
X288210D01*
X283210Y495380D02*
Y505380D01*
X252810Y500380D02*
X262810D01*
X257810Y495380D02*
Y505380D01*
X227410Y500380D02*
X237410D01*
X232410Y495380D02*
Y505380D01*
X202010Y500380D02*
X212010D01*
X207010Y495380D02*
Y505380D01*
X176610Y500380D02*
X186610D01*
X181610Y495380D02*
Y505380D01*
X151210Y500380D02*
X161210D01*
X156210Y495380D02*
Y505380D01*
X125810Y500380D02*
X135810D01*
X130810Y495380D02*
Y505380D01*
X125810Y652780D02*
X135810D01*
X130810Y647780D02*
Y657780D01*
X151210Y652780D02*
X161210D01*
X156210Y647780D02*
Y657780D01*
X176610Y652780D02*
X186610D01*
X181610Y647780D02*
Y657780D01*
X202010Y652780D02*
X212010D01*
X207010Y647780D02*
Y657780D01*
X227410Y652780D02*
X237410D01*
X232410Y647780D02*
Y657780D01*
X252810Y652780D02*
X262810D01*
X257810Y647780D02*
Y657780D01*
X278210Y652780D02*
X288210D01*
X283210Y647780D02*
Y657780D01*
X303610Y652780D02*
X313610D01*
X308610Y647780D02*
Y657780D01*
X329010Y652780D02*
X339010D01*
X334010Y647780D02*
Y657780D01*
X354410Y652780D02*
X364410D01*
X359410Y647780D02*
Y657780D01*
X379810Y652780D02*
X389810D01*
X384810Y647780D02*
Y657780D01*
X405210Y652780D02*
X415210D01*
X410210Y647780D02*
Y657780D01*
X430610Y652780D02*
X440610D01*
X435610Y647780D02*
Y657780D01*
X456010Y652780D02*
X466010D01*
X461010Y647780D02*
Y657780D01*
X481410Y652780D02*
X491410D01*
X486410Y647780D02*
Y657780D01*
X506810Y652780D02*
X516810D01*
X511810Y647780D02*
Y657780D01*
X532210Y652780D02*
X542210D01*
X537210Y647780D02*
Y657780D01*
X557610Y652780D02*
X567610D01*
X562610Y647780D02*
Y657780D01*
X583010Y652780D02*
X593010D01*
X588010Y647780D02*
Y657780D01*
X608410Y652780D02*
X618410D01*
X613410Y647780D02*
Y657780D01*
X266780Y558800D02*
X276780D01*
X271780Y553800D02*
Y563800D01*
X316820Y558800D02*
X326820D01*
X321820Y553800D02*
Y563800D01*
X349330Y608330D02*
X359330D01*
X354330Y603330D02*
Y613330D01*
X444580Y377190D02*
X454580D01*
X449580Y372190D02*
Y382190D01*
X577930Y238760D02*
X587930D01*
X582930Y233760D02*
Y243760D01*
X467440Y41910D02*
X477440D01*
X472440Y36910D02*
Y46910D01*
X292180Y44450D02*
X302180D01*
X297180Y39450D02*
Y49450D01*
X731600Y96520D02*
X741600D01*
X736600Y91520D02*
Y101520D01*
X30560Y90170D02*
X40560D01*
X35560Y85170D02*
Y95170D01*
X256620Y355600D02*
X266620D01*
X261620Y350600D02*
Y360600D01*
X638890Y431800D02*
X648890D01*
X643890Y426800D02*
Y436800D01*
X713820Y433070D02*
X723820D01*
X718820Y428070D02*
Y438070D01*
X732870Y208280D02*
X742870D01*
X737870Y203280D02*
Y213280D01*
X105490Y403860D02*
X115490D01*
X110490Y398860D02*
Y408860D01*
X101680Y378460D02*
X111680D01*
X106680Y373460D02*
Y383460D01*
X85170Y361950D02*
X95170D01*
X90170Y356950D02*
Y366950D01*
X71200Y344170D02*
X81200D01*
X76200Y339170D02*
Y349170D01*
X719060Y34290D02*
X749060D01*
X734060Y19290D02*
Y49290D01*
X19290Y34290D02*
X49290D01*
X34290Y19290D02*
Y49290D01*
X18020Y665480D02*
X48020D01*
X33020Y650480D02*
Y680480D01*
X720330Y665480D02*
X750330D01*
X735330Y650480D02*
Y680480D01*
M02*
